<?xml version="1.0" standalone="yes"?>
<svg xmlns="http://www.w3.org/2000/svg" width="544" height="644">
<path style="fill:#fefefe; stroke:none;" d="M0 0L0 644L544 644L544 0L0 0z"/>
<path style="fill:#101010; stroke:none;" d="M42 120C47.1699 137.946 59.823 153.762 67 171L34 170C34 198.326 36.7224 226.722 37.9606 255C40.4277 311.339 42.5724 367.661 45.0394 424C45.8979 443.607 47.987 463.369 48 483C44.0981 483.341 40.4385 484.244 37.0008 486.21C11.9529 500.536 23.2512 538.732 51 540C51 556.415 52.2444 572.644 52.9606 589C53.155 593.439 51.1377 602.748 54.0278 606.397C57.001 610.151 69.6192 608 74 608L134 608C134.425 613.383 134.963 618.579 135.001 624C135.016 626.209 134.639 629.417 136.603 630.972C140.148 633.779 149.68 632 154 632L199 632C203.422 632 213.814 633.912 217.382 630.972C219.382 629.324 218.361 626.171 218.169 624C217.701 618.712 218 613.306 218 608L314 608C314.002 610.472 313.379 614.317 315.028 616.397C316.406 618.136 319.018 617.958 321.001 617.995C325.997 618.09 331.003 618 336 618L401 618C406.33 618 411.67 618.096 416.999 617.995C418.982 617.958 421.594 618.136 422.972 616.397C424.621 614.317 423.998 610.472 424 608L509 608C509 517.372 506 426.628 506 336C506 313.958 506.002 291.974 505.039 270C504.713 262.557 504.806 257.044 502.113 250.001C501.373 248.063 501.017 245.378 499.272 244.028C497.05 242.308 493.511 243.247 491 243.576C486.022 244.227 480.996 244.125 476 244.715C455.991 247.075 435.132 248.135 415 249L414 203L464 203C468.513 203 478.706 204.895 482.397 201.972C486.151 198.999 484 186.381 484 182L484 123C384.644 123 285.372 127 186 127C203.835 118.657 222.716 112.114 241 104.8C271.661 92.5355 302.213 79.941 333 68C330.785 60.4695 325.736 53.7692 321.85 47C314.947 34.974 308.24 22.8278 301 11C288.678 13.9267 276.67 20.6786 265 25.5756C241.309 35.5171 217.691 45.6341 194 55.5756C163.643 68.3141 133.431 81.4307 103 93.9892C82.8105 102.321 61.2671 109.728 42 120z"/>
<path style="fill:#fefefe; stroke:none;" d="M122 89C127.142 106.48 141.305 121.519 149 138C180.131 127.468 210.483 113.607 241 101.4C270.223 89.7102 300.496 79.3334 329 66C322.892 52.9169 314.607 40.5337 307.421 28C305.522 24.6875 302.838 16.8851 298.787 15.8133C294.786 14.7548 288.574 18.8962 285 20.4213C274.02 25.1064 263.056 29.8925 252 34.3966C220.513 47.2247 189.429 61.0405 158 74.0108C146.019 78.9551 134.275 84.8217 122 89z"/>
<path style="fill:#101010; stroke:none;" d="M381 33C376.122 44.3199 368.221 54.4016 364 66L365 67L367 67C371.183 59.8333 374.905 52.341 378.781 45C380.921 40.9464 383.539 37.6843 383 33L381 33M391.055 51.8511C384.659 53.7739 387.404 64.3712 393.892 62.1991C400.051 60.137 397.493 49.9154 391.055 51.8511z"/>
<path style="fill:#fefefe; stroke:none;" d="M77 108C79.8211 120.3 90.1804 133.161 96.6034 144C98.4782 147.164 100.999 154.218 105.105 154.868C108.751 155.445 113.704 152.318 117 151C126.627 147.15 136.849 143.874 146 139C143.959 132.551 139.805 126.825 136.424 121C130.62 110.999 124.873 100.958 119 91C104.504 94.9647 91.2322 103.155 77 108M46 121C49.634 133.614 57.9028 145.299 63.7531 157C65.3437 160.181 67.3486 167.163 71.213 168.187C73.9828 168.921 77.5135 166.794 80 165.8C86.6377 163.148 93.2281 160.291 100 158C98.87 151.665 95.0069 146.499 91.8503 141C85.9187 130.667 79.5528 120.542 74 110C64.3455 112.641 55.4858 117.791 46 121M177 131L177 199L481 199L481 126C449.379 126 417.598 127.211 386 127.985C344.986 128.99 304.014 128.01 263 129.015C234.423 129.715 205.587 131 177 131M77 170C85.3845 173.764 96.0419 171.647 105 172.039C122.994 172.827 140.956 174 159 174L159 138C149.451 139.644 139.981 144.807 131 148.4C113.004 155.599 95.0701 162.991 77 170z"/>
<path style="fill:#101010; stroke:none;" d="M196.603 139.028C193.925 141.15 195.204 146.166 195.576 149C196.628 157.02 196.899 165.913 196.996 174C197.03 176.817 196.064 181.961 198.603 183.972C202.165 186.793 209.938 184.556 214 184.17C225.662 183.06 238.297 183.004 250 183C253.732 182.999 261.301 184.424 264.397 181.972C266.723 180.13 266.048 175.594 265.985 173C265.794 165.044 264.924 156.924 264.17 149C263.898 146.151 264.956 141.055 262.397 139.028C259.302 136.577 251.731 138 248 138L211 138C207.269 138 199.698 136.577 196.603 139.028z"/>
<path style="fill:#fefefe; stroke:none;" d="M198 141C200.455 154.225 197.207 169.169 201 182C221.259 178.239 242.746 182.76 263 179C262.738 166.31 261 153.734 261 141L198 141M37 173C41.0902 224.828 41.7646 277.052 44.0394 329L49.0394 440C49.6524 454 51 467.959 51 482C73.9146 483.872 90.4927 511.777 73.7863 530.985C68.3279 537.26 61.7522 538.539 54 540C54 561.594 55.3025 583.49 57 605L134 605C134 563.032 129.874 520.907 128.039 479L125.039 414C124.504 401.778 125.148 389.145 123.715 377C121.254 356.147 122.818 334.889 120.83 314C120.254 307.947 120.028 302.092 119.997 296.001C119.986 293.852 119.395 290.692 120.889 288.894C123.652 285.567 131.202 287.078 135 286.985C148.018 286.666 160.939 285 174 285L174 178C128.328 178 82.6565 173.005 37 173M177 203L177 284L208 283C208 288.101 208.361 292.948 209 298C216.662 294.777 222.838 289.52 231 287.039C255.376 279.63 278.642 284.049 302 292C302 262.332 299 232.716 299 203L177 203M302 203L303 230C338.984 230 374.982 227 411 227L411 203L302 203z"/>
<path style="fill:#101010; stroke:none;" d="M51.6034 208.067C47.8453 210.783 50.8859 220.19 50.9853 224C51.3429 237.697 53.3564 251.322 53.9606 265C54.1383 269.022 53.0213 278.157 56.6026 280.972C60.5906 284.107 72.1026 282.023 77 281.999C95.9126 281.908 115.099 280.867 134 280.039C138.985 279.821 144.01 280.01 149 280C151.199 279.995 154.411 280.466 156.258 278.972C159.555 276.305 158 267.751 158 264L158 227C158 223.306 159.272 216.479 156.397 213.603C154.526 211.732 151.418 212.017 149 212.001C143.597 211.964 138.368 211.274 133 211.039C114.213 210.217 94.6386 211.023 76 208.576C70.3221 207.83 64.6926 208.289 59 207.91C56.8107 207.765 53.5645 206.65 51.6034 208.067z"/>
<path style="fill:#fefefe; stroke:none;" d="M53 211C54.759 224.918 55.1306 239.01 56.0895 253C56.6823 261.649 57.9761 270.32 58 279C89.9824 279 121.97 277 154 277L154 233C154 228.935 155.663 220.068 152.972 216.742C151.393 214.79 148.237 215.035 146 215.004C140.245 214.923 134.722 214.714 129 214.17C117.755 213.1 106.287 213.455 95 212.961C80.9819 212.347 67.0669 211 53 211z"/>
<path style="fill:#101010; stroke:none;" d="M113 227C108.082 238.988 100.582 250.566 97 263C101.746 261.516 103.128 257.329 105 253C108.649 244.561 114.375 236.114 116 227L113 227z"/>
<path style="fill:#fefefe; stroke:none;" d="M303 233C303 259.011 305.997 285.007 306 311C341.674 311 377.398 309.529 413 308L412 259L402 259L403 250L412 249C412 242.592 412.174 236.322 411 230C375.002 230 339.006 233 303 233z"/>
<path style="fill:#101010; stroke:none;" d="M68 243C70.1752 250.728 82.3504 260.874 90 263C87.7799 256.09 78.2728 249.25 72 246C77.1741 242.055 87.8539 239.283 90 233C81.9753 234.43 75.4187 239.895 68 243M120 233C122.074 239.299 132.027 244.736 138 247L138 249C131.297 252.422 120.185 259.549 118 267C127.111 263.928 134.051 255.257 142 250C139.815 242.382 127.473 234.756 120 233z"/>
<path style="fill:#fefefe; stroke:none;" d="M415 259C417.299 271.385 415.707 284.449 416.015 297C416.666 323.594 416.874 350.396 418.039 377C419.789 416.958 419.289 457.025 421.039 497C422.612 532.904 424 569.037 424 605L506 605C506 489.71 502 374.318 502 259L415 259M123 291C123 325.982 126.431 361.072 127.961 396C130.135 445.66 131.515 495.416 134.91 545C136.346 565.969 135.838 587.069 137.83 608C138.279 612.717 135.695 624.698 139.742 627.972C143.636 631.122 155.174 629 160 629L215 629C215 585.359 212.947 541.567 211.039 498C209.23 456.689 209.77 415.311 207.961 374C206.68 344.752 205 315.293 205 286C189.371 286.323 173.597 287.842 158 288.91C146.429 289.703 134.426 288.879 123 291z"/>
<path style="fill:#101010; stroke:none;" d="M441.643 302.028C439.173 304.13 440.999 311.998 441 315C441.005 327.374 441.999 339.68 442 352C442.002 386.361 444.145 420.686 444.985 455L445.985 491C446.128 496.807 444.658 504.261 446.318 509.852C447.131 512.591 449.488 512.87 452.005 512.981C457.978 513.244 464.02 513.012 470 513C472.236 512.995 475.508 513.468 477.397 511.972C480.216 509.739 479 503.151 479 500L479 464L479 349L479 317C479 313.096 480.159 306.899 478.397 303.318C476.95 300.378 472.704 301.006 470 301L450 301C447.608 301.001 443.625 300.341 441.643 302.028z"/>
<path style="fill:#fefefe; stroke:none;" d="M444 304C444 372.704 449 441.279 449 510L476 510L476 304L444 304M209 310C209 343.002 212 376.005 212 409C212 417.065 212.789 424.986 212.985 433C213.118 438.397 212.356 443.559 216.228 447.907C228.687 461.892 254.224 459 271 459C267.921 467.284 261.524 473.492 253 476C258.394 492.927 273.164 505.856 279 523L281 523C287.298 512.747 293.436 502.44 299.421 492C302.469 486.684 306.889 480.956 308.502 475C310.573 467.35 308 457.878 308 450C308 426.33 305.594 402.645 305.015 379C304.893 374.036 305.407 368.939 304.816 364C304.211 358.947 302.442 354.124 302.09 349C301.392 338.866 302.441 326.819 293.895 319.39C286.408 312.883 275.402 311.97 266 310.845C246.756 308.542 228.226 309.947 209 310M318 615L421 615C421 594.697 419.512 574.285 419.015 554C417.039 473.371 414 392.666 414 312C387.624 312 361.31 313.958 335 314L315 314.001C312.538 314.014 308.784 313.572 307.028 315.742C303.841 319.681 306.977 329.324 306.999 334C307.086 352.021 308.993 370.011 309 388C309.006 403.692 310.275 419.347 310.961 435C312.479 469.666 313.443 504.349 314.961 539C315.72 556.337 316.202 573.679 316.961 591C317.314 599.063 316.518 607.018 318 615z"/>
<path style="fill:#101010; stroke:none;" d="M267 344C271.517 344.194 275.582 345.269 280 344L280 342C275.379 340.436 268.936 338.168 267 344M213 351C217.121 349.254 220.025 347.051 222 343L221 342C216.457 343.508 212.227 345.77 213 351M243 351C243 355.603 244.574 362.563 243.227 366.867C242.038 370.668 236.866 371.186 234.603 374.214C227.622 383.559 240.373 386.982 247 387L247 384C245.321 383.961 243.627 384.003 241.98 383.606C230.48 380.828 241.127 373.408 247 372C247 365.083 246.971 357.654 245 351L243 351M136.643 353.028C134.595 354.77 135.865 358.713 135.961 361C136.293 368.958 136.961 377.062 136.999 385C137.073 400.359 138.999 415.659 139 431C139 435.275 137.738 444.97 141.6 447.972C143.511 449.458 146.747 448.995 149 449L167 449C171.705 449 182.561 451.01 186.397 447.972C188.75 446.109 187.999 441.617 188 439L188 414L188 369C188 365.214 189.716 355.657 186.397 353.028C184.311 351.376 180.469 352.001 178 352L158 352L143 352.001C141.066 352.014 138.242 351.667 136.643 353.028M221.313 355.086C217.135 357.45 219.681 366.745 224.687 363.914C228.865 361.55 226.319 352.255 221.313 355.086M273.6 355.047C270.11 357.629 272.407 367.294 277.571 363.953C282.008 361.083 278.391 351.502 273.6 355.047z"/>
<path style="fill:#fefefe; stroke:none;" d="M139 355C139 385.364 142.98 415.665 143 446L185 446L185 355L139 355z"/>
<path style="fill:#101010; stroke:none;" d="M167 374C167.002 377.486 167.01 380.65 168 384L170 384C170.99 380.65 170.998 377.486 171 374L167 374M273 419C278.093 417.558 280.793 414.077 282 409C277.233 410.453 274.313 414.277 273 419M175 412C171.854 416.33 168.961 420.676 168 426C172.71 424.392 177.821 416.614 175 412z"/>
<path style="fill:#fefefe; stroke:none;" d="M213 449L214 473C220.758 470.172 232.94 466.197 237 460C227.261 459.15 220.726 454.373 213 449z"/>
<path style="fill:#101010; stroke:none;" d="M173 467C168.057 460.889 161.685 454.986 155.063 462.02C153.801 463.361 152.207 465.019 152.207 467C152.207 470.624 158.293 476.561 162 475.655C165.908 474.7 170.021 469.603 173 467z"/>
<path style="fill:#fefefe; stroke:none;" d="M226 470C231.029 491.737 240.974 512.273 246 534C255.663 528.987 263.354 518.646 271 511C264.306 498.977 256.137 487.58 248.692 476C246.599 472.745 243.957 465.835 239.816 464.816C235.699 463.803 229.706 468.457 226 470z"/>
<path style="fill:#101010; stroke:none;" d="M327 465C335.219 496.752 340.106 529.426 349 561C359.689 557.367 368.106 545.771 377 539C383.886 552.291 396.988 563.042 406 575C410.187 573.046 417.747 567.418 417.108 562C416.625 557.91 411.793 553.957 409.272 551C402.482 543.037 395.604 535.116 389 527C396.799 523.368 408.333 513.841 412 506C392.326 494.517 371.345 484.997 351 474.752C344.059 471.257 335.039 463.447 327 465z"/>
<path style="fill:#fefefe; stroke:none;" d="M218 605L278 605L278 557C278 547.478 279.593 536.326 277.61 527C276.733 522.875 274.522 518.923 273 515C261.783 518.148 254.392 532.384 245 539C240.018 523.69 234.924 508.416 230.28 493C228.183 486.038 225.065 479.212 224 472C221.021 472.858 216.915 473.935 215.028 476.637C213.458 478.885 214 482.417 214 485C214 491.71 215 498.284 215 505C215.002 538.35 217.996 571.685 218 605M308 482C304.612 488.432 300.874 494.68 297.281 501C295.758 503.678 293.222 506.847 292.927 510C292.634 513.143 295.017 515.688 296.794 518C301.204 523.738 305.379 530.424 311 535C311 524.954 310.004 515.001 310 505C309.997 497.624 310.976 488.899 308 482M290 514C286.879 518.09 282.947 522.99 281.51 528C279.134 536.287 281 547.404 281 556L281 605L314 605C314 591.014 312.651 576.961 312.039 563C311.753 556.455 313.501 548.241 311.272 542C309.686 537.558 305.873 533.656 303 530C298.78 524.63 294.881 518.782 290 514z"/>
</svg>
