<?xml version="1.0" standalone="yes"?>
<svg xmlns="http://www.w3.org/2000/svg" width="714" height="624">
<path style="fill:#fefefe; stroke:none;" d="M0 0L0 624L714 624L714 0L0 0z"/>
<path style="fill:#131313; stroke:none;" d="M356 429L347 427C347 418.936 346.211 411.013 346.015 403C344.946 359.39 340.455 300.044 294 280C295.286 276.048 296.224 270.45 299.419 267.563C302.162 265.085 306.667 264.554 310 263.127C316.813 260.212 323.038 256.174 327.351 250C335.051 238.979 331.258 223.896 328.116 212C327.208 208.564 325.091 204.61 325.078 201.039C325.06 196.258 331.317 194.194 330.573 189.015C329.508 181.599 319.76 184.765 316.8 178.941C308.71 163.023 307.425 143.131 293.575 130.518C273.429 112.173 236.99 126.713 218 140.042C212.863 143.648 208.176 147.899 204.493 153.001C193.527 168.192 199.139 184.112 204.656 200C208.402 210.789 212.141 221.769 217.27 232C219.543 236.534 222.314 241.328 226.093 244.776C228.053 246.564 231.562 247.741 232.672 250.274C234.065 253.45 231.512 261.053 229.272 263.486C225.183 267.929 211.741 266.645 206 266.965C187.609 267.989 168.841 271.064 151 275.63C111.71 285.684 70.9873 309.394 47.4383 343C24.6876 375.466 21.9418 424.923 48.439 455.996C61.322 471.104 80.5795 479.326 99 485.33C123.431 493.293 148.589 495.349 174 497.09C194.435 498.489 215.487 498.859 236 497.961C252.308 497.247 269.692 493.949 286 496.3C296.006 497.743 302.933 504.563 312 508C305.613 518.83 299.682 529.949 293.691 541C291.725 544.627 286.64 550.585 287.102 554.907C287.377 557.481 290.063 558.933 292.005 560.188C296.913 563.362 301.899 566.524 307 569.381C309.246 570.639 312.049 572.338 314.621 570.928C318.859 568.606 321.793 561.011 324.2 557C328.818 549.303 333.501 541.653 338.189 534C340.529 530.181 342.534 525.564 345.61 522.279C348.15 519.566 351.759 519.126 355 517.647C360.438 515.167 366.97 510.881 370.487 505.995C371.983 503.917 372.537 501.401 373.933 499.285C375.902 496.301 378.888 494.249 380.544 490.999C381.624 488.88 381.743 486.339 383.012 484.325C386.159 479.33 391.13 477.417 392.456 471C394.03 463.384 386.544 455.833 389.873 449C394.605 439.289 401.196 430.227 406.797 421C419.137 400.672 431.566 380.391 443.8 360C448.538 352.104 454.068 344.314 458 336C475.571 343.779 496 346 515 346C557.959 346 602.26 329.821 631.911 298C692.114 233.391 688.412 121.339 620 63.5903C602.326 48.6707 582.286 36.9416 560 30.4244C534.006 22.8226 505.633 21.5883 479 26.6111C449.261 32.2197 420.549 45.4859 399 67C372.629 93.3287 356.724 127.832 353.17 165C349.51 203.28 357.801 241.621 379.079 274C386.669 285.55 396.028 295.463 406 304.961C408.842 307.669 416.494 311.785 416.698 316.09C416.848 319.258 413.656 323.297 412.22 326C408.108 333.741 403.729 341.365 399.424 349C390.645 364.572 382.37 380.435 373.576 396C367.587 406.6 360.164 417.557 356 429z"/>
<path style="fill:#fefefe; stroke:none;" d="M502 27.4244C495.33 28.3002 488.652 28.2136 482 29.4599C451.431 35.1875 421.113 48.4975 399.17 71.0895C347.852 123.924 341.811 212.207 382.355 273C403.931 305.352 437.388 328.427 475 337.873C493.188 342.441 513.318 343.949 532 341.715C564.395 337.84 595.139 326.341 620 304.711C671.886 259.567 684.841 179.479 656.691 118C642.915 87.9131 618.933 62.5841 590 46.6945C576.822 39.4571 562.776 33.8043 548 30.8009C533.257 27.8043 517.031 25.4509 502 27.4244z"/>
<path style="fill:#131313; stroke:none;" d="M496 43.4244C473.012 46.4799 450.431 52.5496 431 65.7462C416.37 75.6816 403.988 88.1755 394.345 103C355.109 163.32 367.346 248.716 423 294.536C439.94 308.483 459.682 318.056 481 323.116C498.322 327.227 516.381 328.085 534 325.711C554.359 322.969 574.52 316.457 592 305.575C606.646 296.457 619.187 284.93 629.36 271C669.354 216.233 662.61 136.061 616.911 87C596.825 65.4374 569.754 51.15 541 45.3997C526.754 42.5507 510.454 41.5032 496 43.4244z"/>
<path style="fill:#fefefe; stroke:none;" d="M475 108L475 112L435 112C439.454 118.322 445.54 123.54 451 129L480 158C484.713 162.713 490.774 167.375 494.4 173C498.065 178.683 500.434 188.392 502 195C504.597 190.75 505.176 185.525 507.326 181C510.554 174.209 515.959 168.333 522 163.927C526.233 160.841 530.978 158.844 536 157.428C575.419 146.316 612.346 190.711 590.906 227C587.224 233.232 581.956 238.685 576 242.779C569.456 247.277 561.781 249.258 554 250.154C545.01 251.19 536.012 249.106 528 244.88C518.821 240.037 511.436 232.377 507 223L508 222L510 222C520.95 247.372 555.308 254.66 576.985 238.51C591.058 228.026 596.84 208.794 592.522 192C583.931 158.593 539.356 147.637 516.104 173.004C511.009 178.562 507.8 185.6 506.465 193C505.932 195.954 506.823 202.08 503.276 203.444C501.097 204.281 497.994 202.418 495.999 201.681C489.415 199.249 481.668 197.59 475.424 194.588C468.531 191.273 462.374 182.374 457 177L414 134C407.386 127.386 400.545 117.985 392 114C381.414 132.205 375.956 155.059 375.039 176C374.627 185.424 375.923 194.641 376 204L481 204C477.133 211.013 462.082 208 455 208L377 208C380.546 226.286 386.536 243.116 396.425 259C399.621 264.134 403.59 272.015 409.09 274.972C414.198 277.719 423.334 276 429 276L475 276C471.901 281.621 464.644 280 459 280L414 280C417.826 288.034 427.83 294.271 435 299.279C458.056 315.382 485.126 323 513 323C510.035 315.87 506.379 308.994 507.432 301C508.135 295.66 509.466 290.45 512.638 286C515.764 281.615 520.189 277.459 525 274.996C549.2 262.608 576.791 285.193 572 311C579.969 309.58 587.345 304.405 594 299.996C611.952 288.102 626.468 272.23 636.244 253C671.61 183.431 645.445 91.5741 572 58.8611C532.297 41.1768 484.987 41.7536 446 61.2469C436.632 65.9312 428.011 71.6763 420 78.439C417.452 80.59 413.2 83.5762 412.346 87C411.189 91.6384 419.174 97.1801 422 100C424.654 102.649 427.381 106.062 431 107.397C435.107 108.911 440.685 108 445 108L475 108z"/>
<path style="fill:#131313; stroke:none;" d="M535 75.439C530.015 76.2237 525.304 77.7986 521.001 80.4684C505.59 90.0297 502.706 113.998 513.529 127.999C521.333 138.095 533.502 142.502 546 140.7C550.183 140.097 554.378 138.707 558 136.521C588.009 118.411 569.015 70.0849 535 75.439z"/>
<path style="fill:#fefefe; stroke:none;" d="M532 79.5293C513.352 83.8087 504.946 106.774 514.363 123C521.28 134.917 534.974 139.937 548 136.761C566.777 132.182 575.456 109.464 565.521 93C558.624 81.5707 544.896 76.5699 532 79.5293z"/>
<path style="fill:#131313; stroke:none;" d="M31 85L31 108C39.6566 103.689 47.1532 96.6365 55 91C48.7237 87.1665 38.3021 85.5965 31 85M555 90C548.504 97.6214 540.789 107.965 539 118C534.872 113.515 531.556 107.708 526 105C527.041 112.129 534.007 121.021 541 123C542.883 115.074 547.175 107.726 551.671 101C554.027 97.4751 557.63 94.0181 555 90z"/>
<path style="fill:#fefefe; stroke:none;" d="M408 91C404.223 94.9576 394.822 103.922 395.878 110C396.37 112.833 399.105 115.063 401.005 117C404.964 121.037 409.001 125.001 413 129L457 173C460.999 176.999 464.96 181.039 469 184.995C470.671 186.632 472.619 189.061 475 189.654C476.982 190.148 478.535 189.007 480 187.833C483.137 185.319 491.802 178.606 490.654 174C489.786 170.516 485.421 167.422 483 165L465 147L442 124C431.129 113.129 420.571 99.8554 408 91M290 134C285.126 124.618 270.095 125.019 261 126.439C239.712 129.764 206.224 142.823 202.146 167C199.952 180.01 205.08 191.976 209.576 204C212.209 211.042 214.566 218.188 217.781 225C220.719 231.225 223.556 238.259 229.015 242.721C233.419 246.321 241.511 247.771 244.821 241.891C247.079 237.879 246.449 230.291 245.057 226.059C243.21 220.444 238.429 223.237 234 222.631C228.563 221.887 223.423 217.516 222.434 212C220.887 203.363 233.889 193.28 241.996 193.697C249.955 194.106 253.947 210.982 256.397 217C261.238 228.894 265.91 240.993 272.615 252C275.375 256.531 278.801 262.264 284.001 264.258C291.419 267.102 302.096 262.635 309 259.932C314.255 257.875 319.934 254.536 323.362 249.96C331.654 238.889 327.726 223.093 324.29 211C322.487 204.655 321.984 197.83 313.999 198.044C303.969 198.313 294.808 204.062 286 208.219C282.013 210.101 276.442 213.239 272.043 210.968C267.534 208.641 265.327 202.476 263.695 198C259.993 187.846 257.664 177.269 254.33 167C252.167 160.338 250.149 153.866 256.189 148.532C265.168 140.604 279.868 140.621 290 134M291.96 136.302C288.549 136.991 285.276 140.202 282 141.546C274.322 144.696 256.85 145.85 255.243 156.004C254.449 161.019 257.167 166.341 258.656 171C261.624 180.29 263.593 189.923 267.204 199C268.966 203.43 271.203 209.242 277.001 208.412C285.099 207.253 293.332 200.972 301 198.064C308.07 195.383 313.851 196.166 320.999 195.142C323.577 194.773 327.588 192.486 327.079 189.314C326.5 185.712 318.193 187.502 315.843 184.682C313.314 181.649 312.311 176.65 310.95 173C307.725 164.349 304.78 155.479 301.127 147C299.686 143.654 296.725 135.341 291.96 136.302z"/>
<path style="fill:#131313; stroke:none;" d="M142 152L142 164C146.033 161.385 145 156.386 145 152L142 152M289 161C292.846 159.506 295.18 157.724 297 154C292.496 154.697 290.248 156.607 289 161M547 169C544.886 176.152 546 184.573 546 192C546 199.427 544.886 207.849 547 215L549 215C551.114 207.849 550 199.427 550 192C550 184.573 551.114 176.151 549 169L547 169M296.592 171.086C293.432 173.311 296.856 180.414 300.408 177.914C303.568 175.689 300.144 168.586 296.592 171.086z"/>
<path style="fill:#fefefe; stroke:none;" d="M245 217C247.962 224.69 251.993 233.963 248.08 241.985C245.697 246.871 241.028 246.887 237.934 250.56C236.294 252.508 235.8 255.608 235.151 258C233.439 264.309 228.955 273.572 231.406 280C236.617 293.666 253.154 304.423 267 307.192C273.694 308.531 282.44 308.789 286 302L283 301C285.088 296.289 289.216 288.324 288.498 283.09C288.007 279.516 283.997 276.913 282.133 273.996C280.133 270.865 279.458 267.19 277.607 264C275.162 259.786 271.747 256.18 269.204 252C258.723 234.77 251.737 214.583 244 196C237.447 197.553 229.369 200.529 226.183 207.004C220.088 219.389 238.216 219.473 245 217z"/>
<path style="fill:#131313; stroke:none;" d="M98 206C97.311 213.134 105.671 220.925 111 225C111.972 218.153 103.217 209.84 98 206M306 209C307.073 212.536 308.325 213.54 312 213C310.104 210.819 308.741 209.931 306 209M547 221C546.352 223.709 546.058 226.216 546 229C550.002 227.829 550.067 224.629 549 221L547 221M444 248C447.8 250.599 451.613 255.387 456 256.843C461.682 258.728 467.994 250.298 470 246C466.717 243.508 463.077 239.04 459 238.005C453.787 236.683 446.815 244.33 444 248z"/>
<path style="fill:#fefefe; stroke:none;" d="M51 345C78.308 345 103.283 357.537 118 381C122.231 378.02 125.632 374.059 130 371.247C138.377 365.854 147.322 365 157 365C156.975 373.915 154.63 382.266 150.123 390C147.402 394.67 142.692 398.126 140.434 403C138.85 406.416 139.01 410.328 139 414C155.198 417.018 171.613 417.322 188 418.039C216.305 419.279 244.692 419.721 273 420.961C287.883 421.612 303.305 420.272 318 423C318.921 411.334 319.722 399.65 320.83 388C321.32 382.85 319.858 377.835 325 375C324.969 386.358 323 397.623 323 409C327.8 409 338.764 410.977 341.972 406.486C343.948 403.721 342.829 399.079 342.424 396C341.562 389.434 341.617 382.615 341.086 376C339.023 350.34 334.178 322.455 317.384 302C311.225 294.498 301.852 285.778 292 284C290.109 292.584 292.773 303.371 283.96 308.772C267.512 318.851 243.481 301.092 233.808 289C229.112 283.13 225.336 276.678 227 269C181.372 269.126 136.168 279.452 97 303C79.8702 313.299 61.0572 327.348 51 345M533 275.468C518.099 278.279 510.937 290.82 511.001 305C511.025 310.434 511.787 317.683 516.39 321.397C518.759 323.308 522.136 323.05 525 322.985C531.636 322.836 538.485 321.618 545 320.389C550.479 319.356 555.721 317.773 561 316C563.313 315.223 566.471 314.609 567.973 312.49C570.158 309.408 569.536 303.517 569.115 300C567.019 282.48 549.722 272.313 533 275.468z"/>
<path style="fill:#131313; stroke:none;" d="M548 296C544.576 302.151 540.014 307.628 537 314C533.679 311.107 531.023 307.889 527 306L526 307C527.628 310.492 532.169 317.694 536.826 317.079C539.275 316.755 541.031 313.78 542.36 311.995C545.735 307.462 550.595 301.823 550 296L548 296z"/>
<path style="fill:#fefefe; stroke:none;" d="M421 317C415.396 327.651 408.631 337.877 404 349C410.751 351.811 417.585 355.075 424 358.587C427.071 360.269 431.303 363.425 434.957 363.292C438.353 363.167 440.062 359.522 441.6 356.999C445.921 349.908 452.412 342.236 454 334C442.081 329.941 432.234 322.313 421 317M356 514C347.139 509.254 334.934 509.067 328 501C339.595 502.188 355.918 517.013 366.606 505.78C368.21 504.095 369.079 502.088 370 500C358.013 499.967 347.923 494.238 337 490L337 488L338 487C350.678 492.271 373.627 506.243 379 485C368.791 485.806 352.818 485.328 347 475C350.179 475.916 352.988 477.336 356 478.688C365.511 482.958 384.846 485.552 388.566 471.999C389.169 469.804 389.089 467.241 388.815 465C388.454 462.057 387.358 459.591 386 457L384 457C381.825 461.087 379.282 467.522 374.896 469.642C370.879 471.584 366.301 469.021 363 466.776C354.364 460.905 348.379 452.757 343 444L348 444C349.749 439.941 352.156 436.375 353 432C332.999 424.545 309.984 425.88 289 424.961C258.78 423.637 228.247 422.147 198 422.001C182.301 421.925 166.588 421.02 151 419.155C141.819 418.056 131.914 416.608 124.004 411.451C118.671 407.975 113.11 401.812 113.289 395C113.396 390.903 116.176 387.158 115.258 383C114.36 378.936 111.061 375.13 108.384 372.09C97.5448 359.777 81.0195 351.619 65 348.921C60.4419 348.153 51.7201 346.129 47.9043 349.603C41.0741 355.822 37.8379 369.369 35.6296 378C26.2701 414.582 39.269 450.934 72 470.396C105.771 490.475 148.778 493.078 187 494.015C198.01 494.284 208.918 495.446 220 494.961L263 492.961C269.385 492.681 275.558 491.526 282 492.171C309.041 494.876 327.009 524.585 356 514M402 352C387.888 375.057 375.872 399.464 362.576 423C359.21 428.957 355.956 434.984 352.695 441C351.384 443.418 349.396 446.094 350.083 449C350.635 451.338 352.53 453.286 354.094 455C357.967 459.244 368.655 471.064 375.215 465.396C378.192 462.823 379.987 458.296 382.05 455C386.602 447.728 390.984 440.355 395.4 433C404.238 418.278 413.365 403.724 422.2 389C426.521 381.799 431.673 374.712 435 367C423.97 362.408 413.686 354.776 402 352M135 413C137.625 398.862 138.197 384.264 140 370C127.476 373.608 108.929 389.567 119.653 403.907C123.252 408.719 129.506 411.129 135 413z"/>
<path style="fill:#131313; stroke:none;" d="M522 370C516.9 372.258 511.432 373.755 506 375C508.57 380.512 513.488 385.43 519 388C520.131 382.537 523.93 375.394 522 370z"/>
<path style="fill:#fefefe; stroke:none;" d="M322 412L322 423L343 426L343 411C335.63 411.952 329.451 413.383 322 412z"/>
<path style="fill:#131313; stroke:none;" d="M465 422C467.467 427.29 471.844 431.325 477 434C477.091 427.918 470.476 423.492 465 422z"/>
<path style="fill:#fefefe; stroke:none;" d="M314 511C308.895 521.934 301.646 531.843 297 543C305.254 546.854 312.586 552.478 321 556C327.493 543.801 336.529 532.697 342 520C332.016 518.654 323.651 512.72 314 511M295 546C293.198 548.945 291.46 551.873 290 555C297.116 559.709 305.548 566.37 314 568C315.56 564.639 317.294 561.661 318 558C310.438 554.017 303.252 548.382 295 546z"/>
</svg>
