<?xml version="1.0" encoding="UTF-8" standalone="yes"?>
<!-- Created with sK1/UniConvertor (http://sk1project.org/) -->
<svg xmlns="http://www.w3.org/2000/svg" xmlns:xlink="http://www.w3.org/1999/xlink"
  width="1247pt" height="1247pt" viewBox="0 0 1247 1247"
  fill-rule="evenodd">
<g>
<g>
<path style="stroke:none; fill:#000000" d="M 595.5 35C 574.1 36.1 548.8 38.6 536 40.9C 514.1 44.9 468.6 55.8 449.3 61.6C 438.1 65 393.3 82.4 381.1 88.2C 377.5 89.8999 370.7 93.1 366 95.2C 355.4 100.2 326.3 116.1 319 121C 316 123 308.3 127.8 302 131.6C 283.7 142.6 271.3 152.2 238.6 180.5C 198.9 214.9 162.2 256.5 133.7 299.5C 101.2 348.6 74.2 407.6 57 467.5C 43.7 513.9 38.8 536.6 36.4 563.5C 36 567.9 35.6 572.8 35.4 574.5C 35.2 576.1 34.8 592.3 34.4 610.5C 34 636.2 34.2 647.9 35.4 663.5C 37.3 686.6 39.3 703.1 40.6 705.1C 41.1 705.9 41.8 709.2 42.1 712.5C 43.9 727.5 48.3 747.6 53.3 763.5C 54.7 767.9 57.2 776.7 59 783C 64.4 802.1 77.5 838 86.6 858.3C 101.8 892.1 127.9 936.9 146.1 960.6C 171.9 994.2 193.9 1018 225.5 1046.3C 267.2 1083.9 313.3 1117.1 347.1 1134.1C 352.8 1136.9 361 1141.3 365.3 1143.7C 381 1152.8 420.5 1169.3 453.5 1180.6C 476.1 1188.4 508 1196.4 524.5 1198.5C 527.3 1198.8 531.5 1199.5 534 1200.1C 549.1 1203.3 571.5 1205.1 608.5 1206.1C 648.5 1207.2 669.6 1206.7 688 1204.5C 705.1 1202.4 735.6 1198.1 748.4 1195.9C 760.3 1193.9 802.2 1182.5 817.5 1177C 853.2 1164.3 884.5 1151 906.1 1139.3C 913.6 1135.3 920 1132 920.4 1132C 921.7 1132 952.2 1113.2 965.5 1104.2C 1004.5 1077.7 1032.2 1053.9 1066 1018C 1094 988.3 1131.3 938.6 1146.1 911.4C 1148.4 907.1 1152.7 899.4 1155.5 894.5C 1166.5 875.2 1181.4 842.1 1189.5 819C 1200 789 1210.6 751.4 1215 728.5C 1215.6 725.2 1216.5 720.9 1217 719C 1218.9 711.1 1222.2 679.2 1223.6 655C 1225.3 624.9 1223.9 571.7 1220.9 553C 1218.5 537.9 1218 535.2 1216.9 528.5C 1211.6 497.6 1195.9 441.8 1183.3 409.5C 1173.1 383.5 1155.6 348.6 1138 319C 1126 298.8 1102.1 265.5 1082.5 241.6C 1058.9 212.6 1022.3 177 997 158.4C 968.1 137.1 964.8 135 931 114.3C 921.2 108.3 873.7 84 866 81C 864.1 80.3 859.6 78.3 856 76.7C 845.5 72 836.1 68.3999 826.5 65.6C 821.6 64.1 812.6 61.2999 806.5 59.2999C 800.5 57.2999 794.2 55.3999 792.5 54.8999C 759.4 46.0999 722.5 39.2 693.5 36.3999C 673.8 34.5999 619.5 33.8 595.5 35zM 685.2 60.4C 724.7 64.4 774.8 74.6 802 84.2001C 844.9 99.2001 868.1 108.7 892 121.2C 900.5 125.6 908 129.6 908.5 130C 909.1 130.4 917.2 135.1 926.5 140.5C 960.2 159.9 985.9 178.6 1013.1 203.6C 1033.2 222 1046.3 235.8 1060.6 253.5C 1091.9 292.4 1111.3 320.7 1128.8 353C 1165.6 420.9 1188.3 492.1 1197.1 567C 1199 583 1199.3 590.6 1199.3 623C 1199.2 651 1198.8 664.2 1197.6 675C 1196.7 683 1195.5 693.1 1195.1 697.5C 1193.2 715 1182.2 764.7 1176.5 781.5C 1164.6 816.3 1151.8 848.3 1143 864.5C 1124.7 898.5 1118.5 908.8 1103.8 930C 1081.2 962.7 1058.5 989.6 1026.6 1021.6C 1004.1 1044.1 987.8 1057.6 958.5 1077.7C 933.3 1095.1 925 1100 898.7 1113.1C 886.5 1119.2 872 1126.5 866.5 1129.2C 857.6 1133.7 845.1 1139.2 823.5 1148C 817.6 1150.4 797.1 1157.2 771.5 1165.1C 757.5 1169.4 719.9 1175.5 698.5 1177C 616.2 1182.5 560.9 1179.7 506 1167.5C 476.4 1160.8 436.2 1147.5 404 1133.7C 362.8 1116 324.9 1094.4 301 1075.1C 298.5 1073.1 294.5 1070.1 292 1068.5C 282.2 1062.1 256.4 1041.8 246.4 1032.5C 245.8 1031.9 238 1024.7 229.1 1016.5C 198.5 988.3 164.4 947 144.2 913.3C 136.2 900.2 125.5 881.4 118.1 867.9C 114.3 860.8 104.5 839 94.9001 816C 92.7001 810.9 88.7001 799.2 85.9001 790C 83.1001 780.9 79.4001 768.7 77.5001 762.9C 72.7001 748.1 71.4001 742.9 67.6001 723.5C 62.2001 695.6 61.6001 690.7 58.9001 650.2C 57.8001 634.1 58.2001 591 59.5001 574C 60.0001 568 64.5001 535 65.4001 530.5C 65.6001 529.4 66.4001 525.8 67.0001 522.5C 67.6001 519.2 68.6001 514.9 69.0001 513C 69.5001 511.1 71.3001 503.6 73.0001 496.5C 87.4001 435.8 117.5 367.5 153.7 313.5C 178 277.2 204.7 245.6 238.6 213C 277.4 175.7 321.1 145 371.4 119.8C 401.3 104.8 415.9 98.7002 447.9 87.9001C 470.5 80.2002 481.7 77.3002 512 71.0001C 523.3 68.7001 534.1 66.4001 536 66.0001C 540.9 64.7001 558.6 61.9001 570 60.5001C 585.2 58.7001 667.2 58.6 685.2 60.4z"/>
<path style="stroke:none; fill:#000000" d="M 628 84C 618.4 84.3 602.2 84.9 592 85.3C 581.8 85.6001 571.3 86.3 568.5 86.9C 563.3 88 558.6 88.7001 551 89.6C 548.5 89.7999 545.6 90.5 544.5 90.9C 543.4 91.4 536.7 92.7001 529.5 93.9C 515.3 96.1 494.6 100.3 489 101.9C 487.1 102.5 478.1 105.1 469 107.6C 452.6 112.3 418.4 124.7 403.9 131.3C 371.4 146.2 336.6 165.9 313.1 182.8C 270.5 213.3 232.7 249.7 196.6 295C 183.4 311.6 169 331.7 169 333.6C 169 334 168.4 335.1 167.6 335.9C 164.7 339.4 137.1 391.1 132.7 401.5C 131.3 404.8 126.6 415.8 122.2 426C 111.6 450.5 109 457.5 103.6 476.5C 101.1 485.3 98.2 495.4 97.1 499C 94.5 507.2 92.1 517.8 90.8 525.5C 90.3 528.8 89.4 534 88.9 537C 88.3 540 87.5 545.7 87.1 549.6C 86.7 553.5 86 557.1 85.7 557.7C 85.4 558.2 84.4 566.5 83.4 576.1C 81.4 596.9 82 644 84.4 666C 89.4 710 90.5 716.8 96.8 739.5C 98.3 745.1 98.4 745.1 153.6 745C 181.5 745 206 744.7 208.1 744.4C 214.9 743.3 215.4 741.8 216 724.2L 216.5 708.5L 210.5 702.5C 203.3 695.5 200 689.2 199.3 681.2C 198.5 672.1 200.2 667.6 207.3 660.5C 214.8 653 220.8 650.6 230.5 651.2C 238.4 651.7 243.5 654.9 248.9 663.1C 259.4 678.9 255.5 696.1 239 706.5C 236.8 707.9 234.6 709.8 234 710.9C 233.4 712.1 233 721.8 233 735.8C 233 755 232.8 759 231.5 760C 229.7 761.5 221.8 761.1 201 758.5C 190.4 757.2 186 757 180 757.9C 175.9 758.5 166.2 759.2 158.5 759.5C 141.7 760.3 108.2 762.8 105.8 763.6C 102.3 764.7 104.6 777.5 108.6 779.5C 109.9 780.1 132.8 780.5 171.9 780.4L 233.2 780.2L 238.2 775.4C 240.9 772.7 247.7 765.3 253.3 759C 258.9 752.7 268.1 742.4 273.8 736.1C 279.5 729.7 286.6 721.3 289.5 717.4C 295.2 709.9 300.3 705 302.4 705C 303.1 705 306.3 703.1 309.6 700.8C 312.8 698.6 316.9 696.1 318.7 695.3C 322.3 693.8 327 693.6 327 694.9C 327 700.4 310.1 725.6 297.1 739.4C 283.6 753.8 258.1 782.4 252.5 789.5C 249.9 792.8 247.1 796.1 246.4 796.9C 245.4 798.1 234.6 798.4 183.3 798.6C 149.3 798.8 120.1 799.2 118.3 799.5C 114.2 800.2 113.6 801.2 115.5 804.7C 116.3 806.2 119 811.9 121.5 817.3L 126 827L 204.2 827L 282.3 827L 315.8 793C 334.2 774.3 349.7 759 350.2 759C 351.5 759 348.3 764.7 346.5 765.3C 344.4 766.2 344.6 767.7 347 768.3C 348.2 768.6 349 769.7 349 770.9C 349 772.6 349.6 773 352.5 773C 354.9 773 356 772.5 356 771.5C 356 770.7 356.6 769.9 357.3 769.9C 357.9 769.8 359 769.7 359.5 769.5C 360.1 769.4 361.1 769.2 361.8 769.2C 362.4 769.1 363 768.3 363 767.5C 363 766.7 363.6 766 364.3 766C 365 766 366.6 765.1 367.9 763.9C 369.1 762.7 370.4 762.1 370.8 762.4C 371.9 763.6 369.5 766.4 365.4 768.7C 359.7 771.9 344.6 787.1 326.7 807.5C 301.1 836.9 295.1 843 290.7 844C 288.6 844.4 259.8 844.8 226.7 844.7C 193.6 844.6 159.3 844.7 150.5 845L 134.5 845.5L 134.8 848C 134.9 849.4 136.2 852.5 137.5 855C 138.9 857.5 141.7 862.8 143.7 866.7L 147.4 874L 180 874C 197.9 874 235.8 874.3 264.3 874.7L 316.1 875.3L 340.8 850.7C 363.9 827.7 379.1 814 381.5 814C 382 814 383.3 816.1 384.4 818.6C 385.5 821.3 386.6 822.8 387.2 822.2C 388.8 820.6 388.4 793.1 386.6 786.7C 384.5 779.1 380.1 770.6 375.2 764.7C 370.7 759.1 370.1 758.1 366.5 748.4C 365.1 744.5 362.7 739.3 361.2 736.9C 357.9 731.7 343.9 705.9 338.2 694.4C 335.9 689.9 332.5 681.3 330.6 675.4C 324.1 655.4 319.2 638.6 318 632.5C 317.3 629.2 316.4 624.5 315.9 622C 314.1 612.9 311 587.5 310.4 576.5L 309.7 565.1L 303.6 564.6C 300.2 564.3 288.3 563.8 277 563.5C 255 562.9 244.2 561.7 239.6 559.3C 238 558.5 231.4 553.5 224.8 548.3C 216.2 541.4 212.4 537.7 211.3 535.1C 208.9 529.6 206.9 514.3 207.6 507.7C 208.2 502.8 208 502 206.6 502C 205.7 502 205 501.6 205 501.1C 205 500.6 204.8 499.6 204.5 498.8C 203.7 496.6 205.6 494.4 207.2 495.8C 208.3 496.7 208.9 495.3 210.4 488.2C 212.9 476.6 215.4 470 219.1 465.4C 225.5 457.3 230.2 456 256.7 455.3L 276.9 454.8L 277.4 449.6C 277.7 446.8 278.2 440 278.5 434.5C 279.2 421.9 281.7 398.3 283.1 390.5C 286.1 373.7 289.1 360.4 293.4 344.8C 294.7 340.1 295.6 336 295.4 335.7C 294.9 335.2 318.5 289.4 323.9 280.2C 325.6 277.3 327 274.6 327 274.3C 327 272.6 340.3 254.6 353.5 238.5C 374.4 213 395.7 193.6 423.7 174.5C 450.5 156.1 469.8 146.6 503.8 134.9C 529.9 126 540.8 123.2 561.5 120.6C 587.5 117.2 638.2 118 663 122C 666 122.5 671.7 123.4 675.5 124.1C 700.1 128.1 736.9 141.2 763 155.2C 789.2 169.3 807 182.6 831 205.9C 848 222.5 851 224.6 853.7 221.9C 855.3 220.3 884.3 219.7 912 220.8C 939.5 221.8 940.7 222.1 953.5 230.9C 961.2 236.2 978.5 252.4 986.7 261.9C 997.7 274.8 1007.8 298.1 1011.5 319.5C 1013.8 332 1014.2 369.5 1012.2 381C 1009 399.7 1005.4 411.2 998.6 424.9C 993.6 434.7 984 450.3 982.1 451.4C 979.3 453.2 982.1 453.8 996.8 454.9C 1005.4 455.6 1013.5 456.3 1014.8 456.6C 1018.2 457.3 1033.8 472.8 1036.5 478.1C 1042.7 490.2 1044.6 518.1 1040.2 531.7C 1038.6 536.4 1036.7 540 1034.7 542.1C 1030.8 545.9 1016.3 557.3 1013.3 558.9C 1006.9 562.2 997.4 563.1 959.4 563.7L 921.3 564.3L 920.7 574.5C 920.4 580.1 919.4 587.8 918.4 591.7L 916.8 598.6L 922.3 607.2C 931.1 620.7 957.9 675.9 964.1 693.1C 969.3 707.8 970.4 714.5 969.1 724.8C 967.8 735.1 964.8 742.2 959.9 746.3C 953.6 751.7 945.9 753.7 921.2 756.3L 918.9 756.5L 918.7 792.6L 918.5 828.6L 915.5 833.1L 912.6 837.5L 912.9 855C 913.2 876.4 911.9 884 905.7 897.1C 900.7 907.7 895.2 914.4 884.1 923.2C 875.7 929.9 871.4 932.3 861.8 935.6C 847 940.6 839.5 941.4 810.5 941.3C 795.7 941.3 779.6 940.9 774.9 940.5C 767.9 940 766.2 940.1 765.7 941.3C 765.1 942.9 766.5 970.9 767.6 980L 768.2 985.5L 816.9 985.5C 843.6 985.5 898.8 985.7 939.5 986L 1013.5 986.5L 1013.5 977C 1013.5 971.8 1012.9 960.1 1012.1 951C 1011.1 938.5 1010.7 901.2 1010.5 798.5C 1010.3 723.7 1010 660.8 1009.8 658.6C 1009.6 656 1008.8 654.4 1007.5 653.6C 998.2 648.6 993.8 643.3 991.4 634.1C 988.9 624.3 994.1 609.9 1003.2 601.4C 1009.2 595.8 1013.4 594 1020.6 594C 1032.7 594 1041.4 599.4 1047 610.4C 1050.1 616.5 1050.5 618.1 1050.5 624.9C 1050.5 631.2 1050 633.5 1047.7 638.1C 1045.2 643.3 1039 650 1032.9 654.1L 1030.5 655.7L 1030.5 819.3C 1030.5 940.4 1030.8 983.2 1031.6 984C 1032.5 984.9 1033.6 984 1036.1 980.3C 1037.9 977.7 1043.3 970.3 1048 964C 1052.8 957.7 1057.3 951.4 1058.1 950C 1059.3 947.9 1059.5 925.1 1059.5 802.7C 1059.5 675.1 1059.7 657.8 1061 657C 1061.8 656.5 1065.5 656 1069.3 656C 1075.8 656 1076.1 656.1 1077.1 658.7C 1077.8 660.6 1078.1 701.7 1077.9 788C 1077.8 857.6 1078 916.2 1078.5 918.2C 1078.9 920.3 1079.7 922 1080.4 922C 1081 922 1083.9 917.6 1086.7 912.2C 1089.6 906.9 1094.4 898.7 1097.2 894.1L 1102.5 885.6L 1103.7 855.6C 1106 797.1 1105.2 743.3 1101.5 701C 1100.7 691.9 1099.6 673.9 1099 661C 1098.4 648.1 1097.7 634.8 1097.4 631.4L 1096.9 625.3L 1091.3 623.6C 1080.8 620.2 1071.4 607.9 1070.2 596C 1069 582.5 1083.2 565.3 1096.6 564.2C 1103 563.7 1111.6 566.2 1117.8 570.4C 1121.1 572.7 1123.4 575.6 1126.4 581C 1130.2 588 1130.5 589 1130.5 596.5C 1130.5 609.4 1126.4 616.7 1116.7 621.1C 1113.3 622.6 1113.1 623.3 1114.1 631.5C 1123.8 712.5 1124 715.3 1124.3 794.7C 1124.5 828.1 1124.8 837.2 1125.8 838.2C 1127.6 840 1129.2 837.7 1132.6 828.1C 1134.1 823.9 1137.6 814.9 1140.6 808C 1153.6 777.1 1166 730.4 1170 697C 1170.6 692.3 1171.5 685.6 1172 682C 1175.2 661.1 1176.9 607.9 1175 589C 1172.7 566.6 1170.2 548.6 1165.4 521.5C 1161.9 501.2 1161.4 499.4 1152.8 471.5C 1149 459.2 1133.8 419.2 1126.4 402.3C 1110.5 366 1091.5 333.6 1065.1 298C 1051.9 280.1 1032.4 256.6 1021.4 245.1C 1008.8 231.9 983.5 209.3 971 199.9C 959.9 191.6 933.3 172.9 927.5 169.3C 903.8 154.6 877 140.2 853.1 129.5C 825 116.9 775.9 100.7 749 95.1998C 732.2 91.6998 693.2 85.0999 686 84.4999C 674 83.5999 644.6 83.3 628 84zM 758.1 132.7C 759.4 136.1 758.3 141 756.2 141C 754 141 751 138 751 135.8C 751 130.2 756.2 127.9 758.1 132.7zM 790.8 138.2C 792.5 141.8 790.9 146 787.7 146C 783.4 146 782 142.8 784 137.5C 785.3 134.1 789 134.4 790.8 138.2zM 412.8 161.2C 414.7 163.1 414.2 167.5 411.9 169.6C 409.9 171.4 409.8 171.4 408.4 169.5C 406.6 167 406.6 163.5 408.6 161.6C 410.5 159.7 411.2 159.6 412.8 161.2zM 816.5 168.1C 816.5 172.2 816.1 173.5 815 173.5C 813.4 173.5 812.3 166.2 813.4 163.3C 814.7 160 816.5 162.8 816.5 168.1zM 847 163.2C 847 163.9 846.5 165.2 846 166C 845.2 167.2 845 166.9 845 164.7C 845 163.2 845.5 162 846 162C 846.6 162 847 162.6 847 163.2zM 846 186.1C 846 189 844.2 192 842.5 192C 840.3 192 840.5 185.4 842.7 184.1C 844.9 182.9 846 183.6 846 186.1zM 915.8 202.7C 916.4 208.4 908.7 210.9 906.7 205.6C 905.7 203.1 909.9 198.8 912.9 199.2C 915 199.4 915.6 200.1 915.8 202.7zM 337.5 205.6C 335.1 207.4 333.4 206.9 333.8 204.4C 334.4 201.7 336.3 200.8 338 202.6C 339.3 204 339.3 204.3 337.5 205.6zM 874.9 204.4C 876 206.8 876 207.4 874.9 208.5C 873.6 209.8 871 210.4 868.3 210.1C 866.3 209.9 866.8 205.2 869.1 202.9C 871.6 200.4 873.1 200.8 874.9 204.4zM 942.7 205.7C 942.4 206.7 942.2 206.1 942.2 204.5C 942.2 202.8 942.4 202.1 942.7 202.7C 942.9 203.4 942.9 204.8 942.7 205.7zM 333 225.9C 333 230.5 331.5 235 330 235C 328.9 235 328.7 229.9 329.6 225.1C 330.5 220.5 333 221.1 333 225.9zM 295.8 246.7C 295.6 250.1 295 252.5 294.3 252.8C 292.9 253.2 292.5 247.4 293.6 243.2C 294.8 239 296.1 241 295.8 246.7zM 331.6 245.5C 332.3 248.4 331.6 251 330 251C 328.5 251 326.6 246.4 327.3 244.6C 328.3 242.1 330.9 242.7 331.6 245.5zM 299 264.4C 300 268.7 298.8 269.7 294.7 268.1C 291.4 266.8 291.2 263.8 294.1 260.9C 296.6 258.4 297.8 259.3 299 264.4zM 261.4 261.6C 262.3 263.9 262.1 268 261.2 268C 260.2 268 258 263.5 258 261.5C 258 259.5 260.6 259.6 261.4 261.6zM 1004.5 263C 1004.5 266.6 1001.6 266.3 1001.2 262.7C 1000.9 260.4 1001.2 259.9 1002.7 260.2C 1003.9 260.4 1004.5 261.4 1004.5 263zM 1021.6 283.4C 1022.4 286.6 1021.7 291.3 1020.4 291.7C 1018.3 292.4 1015.8 283.5 1017.7 281.7C 1019.1 280.3 1021 281.1 1021.6 283.4zM 234.6 284.6C 235.6 288.4 233.9 294.4 231.7 294.8C 227.1 295.7 225.7 290.6 229 285.2C 231.4 281.3 233.7 281.1 234.6 284.6zM 295.9 286.7C 297.5 289.6 292.8 296.4 290.6 294.3C 289.5 293.2 290 289.5 291.6 287.2C 293.4 284.6 294.6 284.4 295.9 286.7zM 263.8 289.7C 263.4 294.5 261 295.4 261 290.7C 261 288.9 261.3 287 261.7 286.7C 263.3 285.1 264.1 286.3 263.8 289.7zM 239 326.6C 240.6 330.6 240.2 336 238.4 336.7C 236 337.6 234.7 335.5 234.7 330.6C 234.9 323.7 237.1 321.6 239 326.6zM 266.4 331.7C 266.5 335.9 266.2 336.5 264.4 336.8C 262.9 337 262.1 336.4 261.6 334.8C 260.7 331.3 260.9 328.1 262.1 325.8C 263.1 323.9 263.3 323.9 264.8 325.4C 265.8 326.3 266.4 328.8 266.4 331.7zM 1044.4 328.8C 1045.6 334.5 1043.8 336.7 1040.9 333.1C 1039 330.8 1038.3 326 1039.7 324.6C 1041.4 322.9 1043.6 324.8 1044.4 328.8zM 210 327.9C 212.4 332.4 207.9 339.8 204.5 337C 202.5 335.4 201.7 330.5 203 328.1C 204.4 325.4 208.6 325.3 210 327.9zM 1043.5 356.5C 1043.5 360.1 1043.2 360.5 1041 360.5C 1038.1 360.5 1037.2 357.4 1039 354C 1040.9 350.5 1043.5 351.9 1043.5 356.5zM 183.5 357.5C 183.5 359.5 182.9 360.6 181.8 360.8C 180.3 361.1 180 360.4 180 357.5C 180 354.6 180.3 353.9 181.8 354.2C 182.9 354.4 183.5 355.5 183.5 357.5zM 210 356.8C 210 357.6 206.8 361 206 361C 204.4 361 204.1 358 205.6 356.6C 206.9 355.2 210 355.4 210 356.8zM 267 359C 267 359.5 266.8 360 266.6 360C 266.3 360 265.8 359.5 265.5 359C 265.2 358.4 265.4 358 265.9 358C 266.5 358 267 358.4 267 359zM 178 392C 178.6 393.2 179 395.8 178.8 397.8C 178.6 400.7 178 401.6 176.3 401.8C 173.4 402.2 171.7 398.9 172.6 394.7C 172.9 392.9 173.4 391.2 173.7 390.7C 174.5 389.3 176.9 390 178 392zM 209.6 399C 209.9 405.6 208.9 407.1 206.6 403.8C 204.4 400.7 204.5 394.4 206.7 393.1C 209.2 391.8 209.4 392.3 209.6 399zM 1043 396.1C 1043 397.8 1042.5 400.1 1041.8 401.3C 1040.8 403.3 1040.6 403.3 1040.1 401.7C 1039.7 400.7 1039.6 398.3 1039.8 396.4C 1040.3 392 1043 391.7 1043 396.1zM 1080 396.5C 1080 397.8 1079.6 399.2 1079 399.5C 1077.9 400.2 1076.5 395.6 1077.5 394C 1078.5 392.4 1080 393.8 1080 396.5zM 208.4 416.6C 211.7 419.8 209.8 424.5 205.6 423.4C 202.6 422.7 200.4 419.1 201.3 416.6C 202.1 414.5 206.4 414.5 208.4 416.6zM 1045.4 418.2C 1046.9 420.7 1043.1 424.5 1040.1 423.5C 1037.8 422.8 1037.4 420.9 1039.1 417.9C 1040.3 415.5 1043.8 415.7 1045.4 418.2zM 1077 420.5C 1077 422.4 1076.5 424 1075.9 424C 1073.7 424 1071 421.9 1071 420.1C 1071 417.7 1071.9 417 1074.7 417C 1076.7 417 1077 417.5 1077 420.5zM 179 421C 179 421.5 178.2 422.3 177.3 422.8C 175.3 423.9 171 422.6 171 421C 171 419.4 175.3 418.1 177.3 419.2C 178.2 419.7 179 420.5 179 421zM 209 444.5C 209.4 451.8 209.2 452.2 206.8 451.8C 204.7 451.5 204.5 451 204.7 446.2C 205 440.2 206.8 435.8 208 438.1C 208.4 438.9 208.9 441.7 209 444.5zM 146.4 439.6C 146.7 440.5 147 442.9 147 445.1C 147 448.2 146.6 449 145.2 449C 143.5 449 140.2 446.2 138.6 443.3C 138.2 442.6 138.4 441.1 139 440C 140.3 437.5 145.5 437.2 146.4 439.6zM 1077.5 443.1C 1077.5 447.3 1077.4 447.5 1074.3 447.8C 1071.5 448.1 1071 447.8 1071 446C 1071 443.3 1074.8 437.8 1076.4 438.3C 1077 438.5 1077.5 440.7 1077.5 443.1zM 178.5 443.6C 179.3 449.3 178 451.2 175 448.5C 172.8 446.5 172.9 443 175.2 440.3C 177 438.1 177.8 438.9 178.5 443.6zM 1012.4 440.6C 1013.4 443.2 1013.1 444 1011.2 444C 1008.7 444 1008.1 443.3 1008.7 440.9C 1009.3 438.6 1011.5 438.4 1012.4 440.6zM 250.8 446.5C 250.6 448.1 250.1 449.4 249.5 449.3C 248.4 449 247.2 443.2 247.9 441.1C 248.7 438.7 251.1 443.2 250.8 446.5zM 1047 443.3C 1047 445.4 1043.4 450 1041.8 450C 1040.4 450 1040.9 444.6 1042.5 442.3C 1044.3 439.7 1047 440.3 1047 443.3zM 174.4 464.6C 175.1 466.5 174.2 468.3 172.9 467.5C 171.7 466.7 171.7 463 172.9 463C 173.4 463 174.1 463.7 174.4 464.6zM 1042 469C 1042 469.5 1041.6 470 1041 470C 1040.5 470 1040 469.5 1040 469C 1040 468.4 1040.5 468 1041 468C 1041.6 468 1042 468.4 1042 469zM 1075.8 514.4C 1076.1 521.7 1074.8 524.9 1072.4 522.9C 1068.9 520 1070.1 506.5 1073.8 507.2C 1075.2 507.5 1075.6 508.9 1075.8 514.4zM 1109.8 516.4C 1110 519.5 1109.9 522.7 1109.5 523.7C 1108.2 527.1 1106 522.2 1106 516C 1106 506.6 1109 507 1109.8 516.4zM 109.1 520.3C 110.8 523.3 108.6 524.8 106 522.5C 104 520.7 103.4 518 104.7 516.7C 105.5 515.9 107.8 517.7 109.1 520.3zM 1078.4 537.6C 1079.5 540.5 1079 546.7 1077.6 547.9C 1076.4 548.9 1075.7 548.7 1074.1 547.1C 1071.6 544.6 1071.5 542.9 1073.5 539C 1075.2 535.7 1077.4 535.1 1078.4 537.6zM 1113.1 539.2C 1114.7 542.1 1113.2 550 1111 550C 1110 550 1108.7 549.3 1108 548.5C 1106.3 546.4 1105.5 539.3 1106.9 537.6C 1108.4 535.8 1111.8 536.7 1113.1 539.2zM 141.1 541.1C 142.7 543.7 142.1 545 139.1 545C 135.9 545 134.3 542.6 136 540.5C 137.3 538.9 139.9 539.2 141.1 541.1zM 106.6 545.1C 108.5 547.2 108.5 547.2 105.5 546.8C 103.6 546.6 102.4 545.8 102.2 544.7C 101.7 542.3 104.3 542.5 106.6 545.1zM 1045.8 558.2C 1047.1 559.5 1047.4 566.7 1046.4 569.4C 1046.1 570.3 1045 571 1044 571C 1040.1 571 1038 564.8 1040.4 560.1C 1042.1 556.8 1043.8 556.2 1045.8 558.2zM 210.4 561.2C 210.7 563 210.6 566.1 210.2 568C 209.6 570.8 208.9 571.6 206.8 571.8C 204.6 572.1 204.1 571.6 203.6 569.2C 202.8 566 204 562.1 206.5 559.7C 208.9 557.2 209.8 557.6 210.4 561.2zM 107.9 561.8C 109.3 564.4 108 568.9 105.4 570.6C 102 572.9 100.7 571.5 101.4 566.7C 102.4 560.4 105.8 557.8 107.9 561.8zM 1143.1 565.3C 1142.3 566.1 1142 565.7 1142 563.9C 1142 560.6 1143.4 559.2 1143.8 562C 1144 563.2 1143.7 564.7 1143.1 565.3zM 142.4 563.9C 142.7 564.4 142.4 566.5 141.6 568.6C 140.7 571.3 139.7 572.5 138.4 572.5C 136.9 572.5 136.5 571.8 136.7 569.2C 136.9 564.4 140.6 561 142.4 563.9zM 174 565.4C 174 567.4 172.8 568 170.2 567.3C 166.9 566.5 167.5 564 171 564C 172.9 564 174 564.5 174 565.4zM 976.5 593C 977.4 594.5 976.1 599.8 974.3 601.5C 973.1 602.7 972.5 602.8 971.4 601.9C 969.4 600.3 969.7 597.7 972.1 594.6C 974.3 591.8 975.5 591.4 976.5 593zM 210.3 597.3C 211.5 602.4 209.7 604.6 205.7 603.1C 203.7 602.3 203 601.3 203 599.5C 203 592.2 208.7 590.6 210.3 597.3zM 243 599C 243 603.5 242.6 605.2 241.5 605.6C 239.3 606.5 237.1 604.3 236.4 600.5C 235.6 596.2 237.4 593 240.5 593C 242.9 593 243 593.3 243 599zM 173.8 595.2C 175.3 596.7 175.4 600.6 174 601.5C 172.5 602.4 169.3 601.1 168.6 599.3C 167 595.3 170.9 592.3 173.8 595.2zM 942.5 599.5C 942.5 603.8 942.2 604.5 940.5 604.5C 939.5 604.5 937.9 603.3 937.1 601.8C 935.1 598.2 936.9 593.7 940.3 594.2C 942.2 594.5 942.5 595.1 942.5 599.5zM 1154.4 595.6C 1156.3 600.4 1153.9 606.5 1150.4 605.9C 1148.9 605.6 1148.4 604.5 1148.2 601.2C 1148 598.8 1148.4 596.2 1149.1 595.4C 1150.6 593.5 1153.6 593.6 1154.4 595.6zM 109.5 596C 111.2 598.7 104.8 605.2 102 603.5C 100.6 602.6 100.7 597.7 102.2 596.2C 103.6 594.8 108.6 594.6 109.5 596zM 142.1 597.1C 143 598.9 142.8 599.6 141.2 601.3C 138.5 603.9 136 602.9 136 599.2C 136 597.6 136.3 596 136.7 595.7C 138 594.3 141 595.1 142.1 597.1zM 209.7 631C 209.8 635.1 210.2 639.4 210.5 640.5C 211.1 643.3 209.6 645.3 207.4 644.8C 205.7 644.5 205.5 643.4 205.2 635.1C 204.9 624.5 205.3 622.7 207.7 623.2C 209 623.4 209.4 625 209.7 631zM 269.4 636.6C 271.3 638.4 271.5 644.1 269.8 645.8C 267.6 648 264 647.2 262.9 644.3C 260.5 638 265.2 632.4 269.4 636.6zM 174.8 641.8C 175.2 645.5 173.6 648.2 171.4 647.3C 169.9 646.8 169.4 640 170.7 638.6C 172.3 637 174.5 638.7 174.8 641.8zM 108 643.1C 108 644.3 107.3 645 106 645C 103.4 645 102.4 642.5 104 640.5C 105.6 638.6 108 640.3 108 643.1zM 141.1 642.7C 142.4 646.3 140.5 648.4 138.4 645.6C 137.6 644.5 137 642.8 137 641.8C 137 639 139.9 639.7 141.1 642.7zM 971 645.1C 971 648.7 969.3 652.3 967.9 651.5C 966.7 650.7 966.7 647.8 968 644.6C 969.3 641.1 971 641.3 971 645.1zM 1075.4 643.6C 1077.2 645.3 1077.4 646.8 1076.2 648.7C 1075.2 650.3 1068.1 648.3 1067.3 646.3C 1065.9 642.7 1072.4 640.5 1075.4 643.6zM 984.7 683.2C 986.2 685.1 987.2 689.9 986.5 692.1C 985.1 696.3 978 692.8 978 688C 978 685.8 980.8 682 982.4 682C 983.2 682 984.2 682.6 984.7 683.2zM 109.4 688.3C 110.1 690.1 110 691.3 109 692.4C 106.8 695.1 104.1 694.3 102.3 690.4C 100.6 687 100.6 686.7 102.4 685.5C 104.8 683.7 108.3 685 109.4 688.3zM 173.5 686.5C 175.2 689.3 173.6 695.3 171.2 694.8C 169.4 694.5 167.4 687.9 168.4 685.4C 169.2 683.4 171.9 684 173.5 686.5zM 1147.8 687.9C 1148.2 691.6 1146.9 693 1143.9 692.3C 1140.7 691.4 1139.5 688.2 1141.6 685.9C 1144.4 682.8 1147.4 683.8 1147.8 687.9zM 141.8 688.7C 142.1 690.8 139 695 137.1 695C 135.9 695 134.3 690 134.8 687.7C 135.4 684.9 141.4 685.8 141.8 688.7zM 985.6 716.4C 985.9 717.2 985.7 718.7 985.1 719.7C 984.2 721.4 984.1 721.3 983.2 719C 982.7 717.6 982.4 716.2 982.7 715.7C 983.4 714.5 985 714.9 985.6 716.4zM 138.4 727.5C 138.1 729.4 137.4 731.3 136.9 731.6C 135.9 732.2 135.7 726.6 136.7 723.1C 137.7 719.4 139.2 723.2 138.4 727.5zM 985 726.1C 985 729.4 983.5 733 982.1 733C 980.4 733 980.2 728.8 981.8 725.9C 984 722.2 985 722.2 985 726.1zM 985.4 774.3C 985.2 780.9 978.5 785.7 976 781C 973.7 776.8 978.7 769.5 983.4 770.2C 985.1 770.4 985.5 771.2 985.4 774.3zM 945.8 772.2C 948.8 775.2 945.3 783.1 941.6 781.7C 939.7 780.9 938.6 776.8 939.4 773.5C 940.1 770.8 943.6 770 945.8 772.2zM 295 775.9C 295 777.9 293.7 780 292.5 780C 290.4 780 289.7 778.1 291 776.5C 292.4 774.8 295 774.5 295 775.9zM 986.5 813C 989.3 816.1 986.9 823 982.9 823C 980.6 823 977 819.6 977 817.5C 977 815.7 981.7 811 983.5 811C 984.2 811 985.5 811.9 986.5 813zM 946.1 813C 948.3 814.2 948.7 818.7 946.7 821.4C 944.9 823.8 938.7 823.3 938.2 820.7C 937.6 817.5 939 813.9 941.3 813C 944.2 811.9 943.9 811.9 946.1 813zM 984.4 843.6C 986.3 844.3 986.5 847.2 984.9 850.3C 983.3 853.3 981.8 854.1 980.3 852.8C 978.8 851.6 977.5 845.6 978.5 844.1C 979.2 842.9 982 842.7 984.4 843.6zM 948.9 844.9C 950.1 845.7 950.1 846.2 948.6 848.5C 946.3 852 942.1 853.6 940.2 851.7C 936.5 847.9 944.2 842 948.9 844.9zM 982.3 880.8C 984.5 883.2 986 887.4 985.1 888.9C 983.9 890.8 977.9 892.1 976.3 890.9C 973.9 888.9 975.2 881.9 978.4 879.8C 980 878.7 980.5 878.8 982.3 880.8zM 945.8 882.2C 947.7 884.1 947.2 887.6 944.7 890.6C 941.8 893.9 939.5 893.3 938.6 889.2C 937.6 885 939.4 881 942.3 881C 943.6 881 945.1 881.5 945.8 882.2zM 983 921.2C 986.8 923.9 987.1 929.2 983.8 932.7C 979.6 937.2 976.1 934.5 976 926.8C 976 918.6 977.7 917.2 983 921.2zM 917.8 922.2C 918.5 922.9 919 925.3 919 927.7C 919 931.2 918.5 932.3 916.4 933.7C 914 935.2 913.5 935.2 911.1 933.9C 907.5 931.9 907 926.7 910.1 923.4C 912.5 920.8 915.9 920.3 917.8 922.2zM 951 922.9C 952.3 925.5 950.9 932 948.7 933.4C 946.4 934.9 943.8 933.2 942.9 929.6C 941.9 926.1 943.3 922.3 945.7 921.7C 949.1 920.8 949.9 921 951 922.9zM 895.7 956.7C 895.9 957.3 895.4 959.2 894.5 960.9C 893.1 963.6 892.4 964 888.7 964C 886.4 964 882.8 963.5 880.8 962.9C 877.7 962.1 877 961.4 877 959.5C 877 958.2 877.8 956.6 878.8 956.1C 881.1 954.7 895.1 955.2 895.7 956.7zM 949.1 959.5C 950.4 967 945.4 968.6 942 961.9C 939.2 956.5 939.9 954.8 944.7 955.2C 948.3 955.5 948.5 955.7 949.1 959.5zM 984.8 955.6C 987.8 956.4 987.6 958.2 984 962C 980.1 966.1 975.7 966 975.2 961.7C 974.8 958.4 976.3 956.3 979.3 955.7C 980.5 955.5 981.7 955.2 982 955.1C 982.3 955.1 983.5 955.3 984.8 955.6z"/>
<path style="stroke:none; fill:#000000" d="M 582.5 150.1C 572.2 150.9 561.2 152.7 547 156.1C 545.1 156.5 541.5 157.4 539 157.9C 534.5 158.9 526.6 161.6 513.5 166.5C 509.7 167.9 503.8 170 500.5 171.2C 472 180.9 436.4 203.6 407.4 230.6C 396.6 240.6 377.1 264.9 360.7 288.7C 352 301.4 336.2 331.5 331.9 343.5C 323.7 366.7 317.6 390.6 314.1 413.5C 312.8 421.7 310.4 450.4 309.4 467.7C 308.8 479.7 308.8 479.8 311.1 481.1C 314.1 482.6 323.4 482.7 587 481.9C 701.1 481.5 823.2 481.5 858.3 481.9C 903 482.3 922.4 482.2 923.1 481.4C 923.5 480.8 924.1 474.4 924.2 467L 924.5 453.7L 930.5 452.3C 938.7 450.4 944.2 446.9 953.2 437.8C 959.9 431 961.8 428.3 967 417.7C 978.3 394.6 981.9 378.6 982 352.4C 982 316.5 974.5 291.7 957.1 270.5C 953.9 266.6 951.1 262.8 950.8 262C 949.9 259.6 943 255.2 936.9 253.1C 928.4 250.1 920 249.7 902.1 251.4C 893 252.3 878.4 253 869.6 253.1C 853 253.1 847 253.7 838.7 256.1C 832.7 257.8 832.4 257.6 823.7 246.9C 807.7 227.3 791.7 211.7 778 202.3C 769.5 196.6 745.2 182.1 739.8 179.6C 713.9 167.8 696.5 161.7 675.1 157C 645 150.4 612.5 148 582.5 150.1zM 618.7 175.4C 640.9 178.2 677.2 186.9 692 193.1C 711.4 201.2 745.4 221.2 761.2 233.6C 769.5 240.3 789.3 258.3 794.2 263.8C 798.3 268.4 798.3 268.5 793.9 277.1C 790.2 284.5 780.8 298 779.4 298C 778.6 298 777.8 296.8 777.5 295.2C 774.9 282.7 771.2 277 756.1 262C 744.1 250.1 732.2 241.3 709.3 227.6C 678.5 209.2 645.2 197.6 613 194.1C 590 191.5 581.4 190.9 564.5 190.4C 544.1 189.8 527 188.2 527 186.9C 527 186.4 528.2 185.5 529.8 184.9C 531.3 184.4 534.3 183 536.5 181.8C 540.3 179.9 553.5 175.7 559 174.7C 565.3 173.6 608.2 174.1 618.7 175.4zM 542 222C 562.6 223.3 580.8 227.4 606 236.2C 645.7 250.1 689.1 283.2 712.5 317.5C 732.7 347.1 747.1 379.7 754.5 412.8C 759.3 434 764.3 462 763.6 462.8C 763.3 463 758.6 463.4 753 463.6C 745.6 463.8 742.7 463.5 741.7 462.5C 740.9 461.8 740 458.1 739.6 454.4C 738 438.4 732.4 415.3 725.8 397C 717.4 373.7 695.8 334.9 681.6 317.5C 674.2 308.5 671.6 305.8 661.5 296.8C 643.4 280.6 616.2 264.1 594.5 256C 569.4 246.6 550.6 243.3 518 242.3C 489.9 241.5 479.9 242.9 452 251.1C 446.2 252.8 438.6 254.8 435 255.6C 431.4 256.4 426.5 257.5 424.1 258.1C 421.4 258.7 419.3 258.7 418.8 258.2C 416.5 255.9 427.1 241.9 436 235.3C 438 233.8 449.6 230.7 465 227.6C 471.9 226.2 480.5 224.4 484.3 223.5C 491.4 221.9 515.8 220 522.5 220.6C 524.7 220.8 533.5 221.4 542 222zM 937 264.8C 941 266.9 944 272 944 276.7C 944 282.4 943.3 283 937.1 283C 929.8 283 923.3 286.1 915.7 292.9C 902 305.5 895.2 333.4 897.8 366.4C 898.4 374.3 899.9 385 901.1 390.1C 903.7 401.6 909.6 414.4 914.1 418.7C 918.2 422.6 927.8 427.7 932.6 428.6C 935.1 429.1 936 429.7 935.8 430.9C 935.4 433 919.8 441 916.1 441C 908.8 441 895.8 428.1 888.3 413.3C 881.2 399.5 879.4 393.9 875.9 374C 873.6 360.9 874.6 334.5 878.1 316C 881.8 296.3 895.8 273.9 908.5 267.3C 916.8 262.9 931 261.7 937 264.8zM 882 269.9C 882 271.1 878.2 276.5 872.1 284C 863.2 295 857.4 309.1 855 325.5C 853.1 338.8 852.6 364.8 853.9 375.2C 857 398.1 866.2 424.3 874.3 432.9C 876.1 434.7 879.9 438 882.8 440.1C 885.6 442.3 888 444.5 888 445C 888 445.6 884.4 446 879.7 446C 870.1 446 864.2 444.3 852.3 438.1C 837.4 430.3 829.9 421.4 816.1 395C 808 379.3 806.4 373.6 805.5 356C 804.4 335.8 807.3 321.4 815.8 304.5C 820.3 295.3 830.3 280.8 834.6 277.1C 839.2 273 843.7 272 863 270.5C 872.1 269.8 880.1 269.2 880.8 269.1C 881.4 269.1 882 269.4 882 269.9zM 532.6 274.5C 552.8 278.4 568.6 285.5 577.9 295C 586.5 303.7 594.1 313.3 597.8 320C 609.2 340.5 611.3 373.9 602.7 397.2C 599 407.3 594.6 414 584.5 424.3C 573.3 436 566.1 441.2 555.1 446C 531 456.3 516.5 457.6 495 451.2C 479.6 446.6 472.6 442.9 459.3 432.3C 449 424.1 442.7 416.2 436.9 404.8C 430.1 391.2 428.6 384 428.5 364.5C 428.5 349.6 428.8 346.5 430.8 339.5C 433.1 331.6 440.3 315.3 443.2 311.6C 444.7 309.7 444.8 309.7 448.2 311.8C 452.9 314.7 456.2 314.6 460 311.4C 464.8 307.3 466.1 303.9 465.4 297.7C 464.8 292.5 464.8 292.3 468.6 289.1C 473.8 284.5 487.4 278.1 497.8 275.4C 508.3 272.7 521.4 272.3 532.6 274.5zM 937.2 310.2C 944.4 319.3 947 330.5 947.2 353C 947.3 366.3 947 368.2 944.5 376C 939 392.9 931.3 406.1 927.6 404.7C 925.5 403.9 923.1 398.3 922 391.4C 920.7 383.5 920.6 322.2 921.8 318.2C 922.4 316.3 924.1 312.8 925.5 310.4C 929.1 304.4 932.5 304.3 937.2 310.2z"/>
<path style="stroke:none; fill:#000000" d="M 511.4 297.9C 503.2 298.9 486.7 307 478 314.3C 467.1 323.4 458.6 335.6 455.5 346.5C 453.3 353.9 452.3 368.3 453.3 375.9C 454.4 384.6 458.6 395.2 464.4 403.8C 473.3 417.3 486.5 425.6 505 429.5C 527.5 434.2 551.9 427.4 565.9 412.4C 584.6 392.5 589.4 357.6 576.9 332.9C 572.8 324.6 558 309.7 549.5 305.3C 537.2 298.9 524.3 296.4 511.4 297.9zM 532.1 320.6C 541.9 323.5 553.2 333.1 557.3 342C 563.4 355.1 564.5 365.4 560.9 377.2C 555.7 394.8 545.5 405.1 528.9 409.5C 509.9 414.6 489.5 405.4 479.9 387.5C 477.1 382.2 476.6 380.3 476.2 372C 476 366.8 476.3 359.8 476.9 356.5C 480 339.6 495.2 322.8 510 319.9C 516.4 318.7 526.6 319 532.1 320.6z"/>
<path style="stroke:none; fill:#000000" d="M 513 332.9C 501.3 336.5 493.3 347.8 492.4 362.3C 491.9 369 492.1 369.9 494.9 374.7C 500.7 384.5 510.1 390 521 390C 528.3 390 533.9 386.5 538.7 378.9C 546 367.3 547.9 356.7 544.2 349.3C 541.2 343.5 534 335.9 529.5 333.9C 525.4 332 517.5 331.5 513 332.9zM 530.2 345.1C 534.9 346.3 539 351.1 539 355.4C 539 360.5 535 367.3 531.5 368.2C 524.5 370.1 519 366.7 515.1 358C 511.7 350.5 512.7 345.8 518 343.7C 519.6 343 524.5 343.6 530.2 345.1z"/>
<path style="stroke:none; fill:#000000" d="M 972.2 483.8C 971.4 484.4 972.1 485.3 974.7 486.7C 984 492 991.2 504 988.1 508.9C 987.3 510.1 983.5 510.1 961.9 509C 936.6 507.7 915.1 507.8 824 510C 803.9 510.4 737.3 510.4 676 510C 570.5 509.2 563.5 509.1 546.5 507C 523.3 504.2 490.6 504.6 465 508.1C 449.1 510.2 445.2 510.3 357.5 510.6C 307.5 510.7 265.3 510.6 263.8 510.3C 262.4 510.1 260.9 509.2 260.6 508.4C 259 504.3 270.5 491.3 277.8 488.9C 282.8 487.2 280.4 485.8 271.8 485.3C 262.2 484.7 255.1 487.2 248.1 493.8L 243 498.6L 243 507.3C 243 514.2 243.4 517 245 520.1C 247.5 524.9 254.2 529.4 260.9 530.9C 265.1 531.8 303.6 533.6 332 534.3L 341.5 534.5L 342.1 554.5C 343.1 588.3 345.6 607.7 351.6 629.9C 356.2 646.7 371.1 687.2 377.2 699.5C 383.9 712.8 402.8 745.1 413.2 760.8C 416.9 766.5 420.4 772.8 421 774.9C 422.3 779.7 422.6 951.3 421.3 955.5C 420.5 958 419.3 958.9 413.4 961C 405.8 963.9 401.2 966.6 390.1 974.9C 386.1 978 377.9 983.6 372 987.5C 349.6 1002 299.7 1038.8 298 1041.9C 296.6 1044.7 296.6 1044.8 300.3 1046.4C 302.1 1047.1 307.4 1050.4 312 1053.7C 320.9 1060 334.2 1068.3 344.5 1074C 347.8 1075.8 357.7 1081.6 366.5 1086.8C 385.6 1098.2 391.4 1101 395.8 1101L 399 1101L 399 1091.2C 399 1085.9 399.3 1078.6 399.6 1075L 400.2 1068.4L 390.5 1064.6C 385.2 1062.5 379 1059.3 376.7 1057.6C 368.7 1051.5 364.7 1038.4 366.8 1025.7C 370.1 1006.6 379.3 998.2 395.5 999.2C 405.2 999.8 409.5 1002.7 416.8 1013.5C 423.3 1023.2 424.4 1027.1 423.7 1038.2C 423.2 1045.2 422.4 1048.5 419.4 1055.6C 415.1 1065.6 415.2 1064.6 416.9 1089C 418.5 1112.3 419.1 1114.7 423.4 1116.5C 431.7 1120 453.5 1127 454.7 1126.6C 455.6 1126.2 455.9 1091.5 455.9 961.1C 456 870.3 456.3 794.2 456.6 792C 457 789.8 457.7 788 458.3 788C 462.1 788 472.3 790.5 473.5 791.7C 474.8 793 475 815 475.1 959.8C 475.1 1051.5 475.5 1128.5 475.8 1131C 476.4 1135.1 476.8 1135.5 479.5 1135.8C 481.2 1136 486.8 1137 492 1138C 500.4 1139.7 501.7 1139.8 503 1138.4C 504.3 1137.1 504.6 1116.5 505 966.7C 505.3 873.1 505.9 795.9 506.3 795.2C 507.4 793.5 522.6 793.5 523.7 795.2C 524.1 795.9 524.5 875.3 524.5 971.7C 524.5 1068 524.8 1147.1 525.1 1147.5C 525.5 1147.8 528.4 1148.2 531.6 1148.4C 534.9 1148.6 540.5 1149.1 544.1 1149.5C 550.5 1150.2 550.7 1150.2 551.3 1147.9C 551.7 1146.6 552 1085.3 552 1011.7L 552 877.8L 555 875C 558.5 871.8 565.8 870 567 872.1C 570.7 878 571.9 915.9 571.1 1001C 570.5 1073.1 570.7 1145.3 571.6 1150.8L 572.1 1154L 584 1153.9C 592.8 1153.8 596.2 1153.5 597.1 1152.4C 597.9 1151.4 598.1 1136.4 597.9 1095.3C 597.4 1024 597.6 1012.7 599.3 1006.5L 600.7 1001.5L 606.9 1001.6C 610.3 1001.7 613.6 1002.2 614.2 1002.8C 616.4 1005 616.8 1015.9 616.9 1077.6C 617 1111.8 617.3 1143.2 617.7 1147.5L 618.3 1155.3L 629.9 1154.6C 636.2 1154.3 641.9 1153.5 642.5 1152.9C 643.2 1152.2 643.6 1127.8 643.8 1080.2C 644 1040.8 644.5 1008.2 644.9 1007.7C 645.3 1007.3 647.1 1007.7 648.9 1008.6C 652 1010.1 653.3 1010.1 657.2 1008.5C 662.2 1006.4 663.2 1017.6 663.9 1089.7C 664.2 1124.4 664.7 1153.1 665 1153.4C 665.5 1153.9 690.9 1151.5 691.4 1150.9C 693.8 1148.1 694.1 1142.6 694.7 1093.8L 695.2 1041.5L 691.1 1037.6C 685.3 1032.3 683.8 1028.8 683.8 1021.6C 684 1006.5 692.8 995 704.2 995C 714.5 995 720 999.1 723.9 1009.5C 727.8 1019.8 726.3 1028.3 719.4 1036.1C 717 1038.8 714.4 1042.1 713.6 1043.3C 711.4 1046.8 710.7 1069.5 711.5 1111.5C 712.1 1144.2 712.4 1149.2 713.8 1149.7C 715 1150.2 738.8 1146.3 746.2 1144.3C 748.5 1143.8 749.1 1141.6 750 1130.1C 750.5 1124.8 751 1119.7 751.2 1118.8C 751.4 1117.7 749.6 1115.8 746 1113.3C 742.9 1111.1 739.3 1107.4 737.5 1104.6C 734.9 1100.3 734.5 1098.8 734.5 1092.6C 734.7 1076.2 745.6 1064 760.3 1064C 768.2 1064 771.6 1066 778.2 1074.8C 785.4 1084.2 786.2 1090 782.4 1102.1C 781.2 1105.8 779.4 1108.2 773.8 1113.1L 766.8 1119.4L 767.3 1125.9C 767.5 1129.5 768.3 1133.8 768.9 1135.4C 770 1138.1 770.3 1138.2 774.6 1137.6C 783.3 1136.5 821.2 1123.2 834.5 1116.7C 841.7 1113.2 848.8 1110 850.3 1109.6C 851.9 1109.2 853 1108.4 852.8 1107.7C 852.1 1105.5 838.9 1096.3 824.6 1088C 816.9 1083.6 802.3 1074.4 792.3 1067.7C 774.8 1055.9 757.8 1045.5 742 1036.7L 734.5 1032.5L 733.9 984.5C 733.5 953.5 732.9 935.5 732.2 933.8C 731.3 931.6 729.8 930.8 724.3 929.2C 720.6 928.1 715.7 926.9 713.5 926.5C 693.2 923 657.1 906.2 631.5 888.2C 621.6 881.2 601.2 860.8 590.3 846.9C 569 819.6 555 794.6 550.4 776C 548.3 767.5 548.5 766.8 552.3 767C 560 767.5 562.2 767 562.7 765C 563 763.9 563.6 763 564 763C 565.5 763 571.6 772.4 577.2 783.1C 583.7 795.5 598 818.1 605.8 828.3C 628.4 857.8 656.1 878.4 690.5 891.5C 704.4 896.7 724.4 902 730.5 902C 734.5 902 734.8 901.8 735.3 898.7C 735.6 897 736 882.6 736.2 866.8L 736.5 838.1L 727.2 826.6L 717.8 815.2L 672.1 815.8L 626.3 816.3L 625.7 813.9C 625.3 812.6 625 809.1 625 806.2C 625 801.7 625.3 800.8 627.3 800.1C 630.9 798.8 722.4 796.6 724.6 797.8C 725.7 798.4 732.8 805.2 740.5 812.9L 754.5 827L 754.8 866.9C 755 899.1 755.4 907.1 756.5 908C 760.4 911.2 829.5 911.7 841 908.6C 859 903.6 872.1 890.7 876 874.1C 877.4 867.9 876.6 832.7 874.9 828.2L 873.9 825.7L 847.6 826.3C 826.1 826.8 821 826.7 820.1 825.6C 818.7 823.9 819.7 813.6 821.6 809.8C 823.6 806 826.8 805.4 853.5 803.5C 866.2 802.7 877.7 801.7 879.2 801.4C 884.4 800.4 884.8 797.9 884.9 760.6C 885 742 885.3 726.3 885.6 725.9C 885.9 725.4 890 725 894.8 725C 906.8 725 925.8 722 931.2 719.3C 936.7 716.6 936.9 712.7 931.9 701C 929.6 695.4 897.2 628.5 886.7 607.4L 883.2 600.4L 884.7 594.4C 886.4 588.1 886.9 551.5 885.6 538.8L 884.9 532.5L 933.5 532.3C 986.9 532 988.4 531.8 997.4 525.9C 1003.9 521.6 1007 515.9 1007 508.5C 1007 497.2 1003 490.2 993.8 485.6C 989.6 483.5 987.2 483 981.1 483C 976.9 483 972.9 483.4 972.2 483.8zM 522.5 528.5C 539.7 531.1 549 534.8 564.1 545.1C 581.7 557.2 589.4 565.3 597 580.1C 605.5 596.7 611.2 623 609.5 638.8C 607.1 662.9 598.5 685.7 586.6 700.1C 579.7 708.5 565.5 720.6 556.5 725.7C 542.7 733.5 527.7 737.7 510 738.6C 496.4 739.4 487 737.9 466.5 731.9C 454.8 728.5 433.9 714.5 425.4 704.4C 408 683.6 399.3 662.5 398.3 638.5C 397.5 618.4 401.7 599.6 411.6 579.6C 424.6 553.5 454.9 531.2 481.9 528C 493.1 526.7 512 526.9 522.5 528.5zM 689.1 584.2C 689.2 585.5 689.5 596.6 689.9 609L 690.5 631.5L 694.3 633.3C 700.2 636 705.9 642.5 709.8 650.9C 712.8 657.1 713.4 659.7 713.5 665C 713.5 676.4 705.8 688.5 695.3 693.7C 679.9 701.2 662.3 694 653.2 676.5C 651 672.3 650.6 670.2 650.5 663C 650.5 655.2 650.8 654 653.8 648.4C 657.7 641.3 661.9 636.8 667.5 634.1L 671.5 632.2L 671.5 607.8L 671.5 583.5L 678.5 582.9C 682.4 582.6 686.3 582.3 687.3 582.2C 688.4 582.1 689 582.7 689.1 584.2zM 799.3 640.8C 799.2 670.3 798.8 697.9 798.5 702L 797.8 709.5L 782.9 724.5C 774.7 732.8 765.9 742.4 763.3 745.8L 758.5 752L 701.3 752C 666.5 752 640.1 752.4 634 753.1C 624.1 754.2 623.8 754.2 620.2 751.7C 615.7 748.7 612 742.2 611.3 735.6L 610.7 730.7L 615.1 731.3C 617.5 731.6 624.7 732.6 631 733.5C 640.2 734.9 645.6 735.1 658 734.5C 666.5 734.1 690.8 733.8 712 733.9C 742 734 750.8 733.8 752 732.8C 752.9 732.1 756.7 727.7 760.4 723C 764.2 718.3 770.1 712.1 773.6 709.2L 780 704L 780.2 668.2C 780.4 648.6 780.3 622.1 780.1 609.3L 779.7 586.1L 788.6 585.8C 793.5 585.6 798 585.9 798.5 586.3C 799.1 586.8 799.4 606 799.3 640.8zM 879.2 778.8C 881.1 780.7 876.4 781.9 859.7 783.6C 845.2 785.1 842.6 785.2 837.9 783.9C 823.8 780.1 836.8 776.9 863.8 777.5C 871.7 777.7 878.7 778.3 879.2 778.8zM 651.6 930.5C 665.2 937.3 670.1 944.7 670.8 959.5C 671.3 971.3 669.6 975.1 658.5 986.5C 650.2 995 650 995.1 646.3 994.4C 636.6 992.6 621 984.1 614.5 976.9C 603.9 965.2 604.5 950.8 616.1 937.6C 622.5 930.3 629.2 927.2 638.6 927.1C 643.7 927 645.9 927.6 651.6 930.5z"/>
<path style="stroke:none; fill:#000000" d="M 495 550.1C 468.7 553.2 444.4 570.5 432.5 594.5C 425.9 607.9 423.7 618.5 424.3 634C 425.1 652.6 428.6 663.8 438.5 678.4C 452.2 698.8 468.6 708.3 499.1 713.4C 504.6 714.3 519.9 712.3 528.7 709.5C 542.4 705.2 559.7 693.1 567.9 682.2C 579.2 667.2 583.4 653.6 583.4 632.5C 583.4 617.2 581.5 607.6 576 595.5C 570.3 582.8 556.1 568.6 541.2 560.5C 533 556 520.4 551.4 514.5 550.6C 504.4 549.3 502.4 549.2 495 550.1zM 518.1 573.5C 524.6 575.1 528.7 577.4 538.6 584.6C 550.2 593.2 554.5 599.2 558.8 613.5C 563.4 628.8 563.5 633.9 559.2 650C 556.2 661.4 541.3 678.8 529.4 684.8C 517 691.1 506.2 692.8 493.4 690.6C 478.2 687.9 463.5 678.9 457.4 668.4C 452.2 659.5 446 638.7 446 630.1C 446 620.4 452.5 603.6 460 594.2C 467.8 584.2 484.2 574 494.5 572.7C 501.7 571.8 513 572.1 518.1 573.5z"/>
<path style="stroke:none; fill:#000000" d="M 494.5 592.8C 485.8 595.3 480.8 598.3 475.8 604C 457.8 624.6 461.9 652.8 484.8 665.7C 491.4 669.5 491.6 669.5 502.5 669.5C 512.3 669.5 514.1 669.2 519 666.9C 525.4 663.8 529.7 659.8 535.2 651.7C 541.1 643.1 542 640.1 542 630.3C 542 622.7 541.6 620.7 539.1 615.5C 535.6 608 525.2 597.2 518.6 594C 512.2 591 502.5 590.4 494.5 592.8zM 514.8 610.6C 520.9 614.8 522.2 626.3 517.3 633.2C 514.4 637.4 506.9 641.6 500.5 642.7C 496.4 643.4 493.2 640.6 492 635.5C 490.8 630.6 493.3 618.2 496.1 614.7C 500.1 609.5 510.1 607.3 514.8 610.6z"/>
<path style="stroke:none; fill:#000000" d="M 676 649.1C 667.1 652.8 663.2 664.8 668.5 672C 672.1 676.9 676.5 679.3 681.6 679.3C 689.7 679.3 696 672.4 696 663.4C 696 658.7 695.6 657.8 691.8 653.5C 688.1 649.5 686.9 648.8 683 648.4C 680.5 648.2 677.4 648.5 676 649.1z"/>
<path style="stroke:none; fill:#000000" d="M 630 948.8C 626.4 952.3 626 953.2 626 957.6C 626 967.2 632.5 973.4 641.9 972.7C 646.6 972.4 647.8 971.8 650.6 968.7C 652.5 966.7 654.2 963.9 654.6 962.4C 655.6 958.5 653.4 951 650.3 947.7C 647.9 945.3 646.9 945 640.9 945C 634.4 945 633.9 945.2 630 948.8z"/>
<path style="stroke:none; fill:#000000" d="M 1094.2 583C 1090 585.6 1086.6 592.8 1087.5 597.2C 1088.5 601.4 1095.1 607.7 1099.5 608.6C 1111.9 610.9 1119.1 593.1 1109.5 584C 1106 580.7 1098.6 580.2 1094.2 583z"/>
<path style="stroke:none; fill:#000000" d="M 1014.9 612.3C 1011.2 614.8 1007.6 620.6 1006.5 625.7C 1006 628.4 1006.4 629.4 1009.5 632.9C 1014.4 638.3 1018.8 639.7 1024.4 637.6C 1030.5 635.2 1033.2 632 1033.7 626.3C 1034.9 613.9 1024.3 606 1014.9 612.3z"/>
<path style="stroke:none; fill:#000000" d="M 223.4 667.6C 219.4 668.5 216 673.3 215.3 678.8C 214.7 683.8 214.9 684.1 218.3 687.4C 220.3 689.3 223.6 691.4 225.5 692C 230.3 693.6 233.2 691.6 236.7 684.6C 239.7 678.4 239.4 673.6 235.7 670.2C 233.5 668.1 227.3 666.8 223.4 667.6z"/>
<path style="stroke:none; fill:#000000" d="M 356.5 861.7C 341.7 876.8 328.2 889.9 326.5 890.8C 323.8 892.3 316.3 892.5 247 892.5C 204.9 892.5 169.4 892.8 168 893.2C 166.6 893.6 164.2 894.1 162.7 894.5C 161.1 894.8 160 895.6 160.2 896.3C 160.9 898.9 181.4 928.8 183.4 930C 185.6 931.4 251.9 933.8 256.2 932.6C 257.6 932.3 259.7 929.9 261.5 926.9C 267.9 916 277.3 909.9 287.9 909.8C 296.5 909.7 303 912.9 308.9 919.9C 317.7 930.3 319.2 940.5 313.8 952C 308.6 963.3 300.8 968 287.4 968C 274.6 968 265.8 963.4 259.5 953.6L 256.3 948.7L 232.9 948.9C 207.9 949.1 202 949.9 202 952.9C 202 953.9 205.3 958.5 209.4 963.1C 223.4 979.1 262.3 1015.5 267.4 1017.4C 269.5 1018.2 271 1017.5 277.7 1012.7C 282 1009.6 290 1003.2 295.5 998.5C 301 993.7 308 988.2 311 986.2C 314 984.1 322.1 978.6 329 973.9C 348.5 960.5 377.9 944.3 386 942.5C 388.1 942 389.4 941 390.1 939.2C 392.4 933.4 391.2 838.2 388.9 835.4C 386.1 832 383.4 834.2 356.5 861.7zM 371.8 885.4C 372.3 887.9 371.2 888.8 366.3 889.6C 362.6 890.2 362 890 362 888.5C 362 887.5 362.8 885.8 363.7 884.8C 365.9 882.3 371.3 882.7 371.8 885.4zM 352 925.9C 352 931.3 350.2 936 348 936C 345.1 936 343.7 933.4 344.3 929C 344.9 924 346.5 922 349.6 922C 351.7 922 352 922.5 352 925.9zM 268 989.6C 268 997.4 265.1 1000.1 262.9 994.4C 261.8 991.3 264.2 985 266.4 985C 267.6 985 268 986.1 268 989.6z"/>
<path style="stroke:none; fill:#000000" d="M 281 928.8C 274.3 932.2 271.3 939.8 274.4 945.8C 277.2 951.2 280.6 953.3 287 953.8C 292.9 954.2 293.1 954.1 296.9 950.4C 308.8 938.4 296.1 921.2 281 928.8z"/>
<path style="stroke:none; fill:#000000" d="M 776.2 1003.7C 769.4 1004.1 767.6 1005.6 766.4 1011.7C 765.6 1015.8 767.7 1017.4 787.8 1027.2C 801.3 1033.9 804.3 1035 805.5 1034C 806.7 1033 822.8 1032.7 880.8 1032.9C 951 1033 981 1032.3 984.3 1030.4C 985.1 1029.9 990.4 1024.6 996 1018.7C 1003.3 1011.1 1006 1007.6 1005.2 1006.8C 1004.5 1006.1 982.8 1005.5 939.8 1005C 836.7 1003.6 783 1003.2 776.2 1003.7z"/>
<path style="stroke:none; fill:#000000" d="M 698 1010.7C 693.1 1012.4 692.7 1018.5 697.2 1022.9C 701.2 1026.8 705.6 1027 709.4 1023.5C 712.9 1020.3 713.1 1013.9 709.8 1011.6C 707.6 1010.1 701.1 1009.6 698 1010.7z"/>
<path style="stroke:none; fill:#000000" d="M 388.3 1019.6C 384.7 1021.4 381 1028 381 1032.6C 381 1039.8 388.8 1046 397.8 1046C 401.9 1046 403 1045.5 405.7 1042.7C 411.4 1036.7 412.5 1029 408.4 1024.1C 405 1020 403.6 1019.3 397 1018.6C 392.9 1018.1 390.7 1018.4 388.3 1019.6z"/>
<path style="stroke:none; fill:#000000" d="M 828 1051.9C 828 1055.3 884.8 1087.9 893.5 1089.6C 897.8 1090.4 904.3 1087.7 912 1081.9C 914.5 1080 921.5 1074.9 927.5 1070.6C 943 1059.5 952 1052.6 952 1051.8C 952 1051.5 924.1 1051.2 890 1051.1C 855.9 1051.1 828 1051.5 828 1051.9z"/>
<path style="stroke:none; fill:#000000" d="M 757 1079.7C 754.2 1080.8 751.1 1084.3 750 1087.5C 748.6 1091.6 750.5 1097.6 754.1 1100.2C 756.2 1101.8 757.3 1101.9 761 1101.1C 769.8 1099.1 773.9 1093.1 770.7 1086.5C 768.2 1081.3 761.4 1077.9 757 1079.7z"/>
</g>
</g>
</svg>