<?xml version="1.0" standalone="yes"?>
<svg xmlns="http://www.w3.org/2000/svg" width="365" height="344">
<path style="fill:#fefefe; stroke:none;" d="M0 0L0 344L365 344L365 0L0 0z"/>
<path style="fill:#272527; stroke:none;" d="M175 22.4645C149.426 27.0673 139.683 56.0898 127.989 76C98.1872 126.742 69.0223 177.891 39.8495 229C27.724 250.243 10.7377 273.033 27.4429 296.999C43.3478 319.817 74.8832 314 99 314L243 314L288 314C296.933 314 306.248 314.795 315 312.66C338.226 306.997 351.127 281.189 342.532 259C339.68 251.636 334.757 244.844 330.85 238C322.453 223.291 313.926 208.649 305.424 194C281.481 152.745 258.168 111.132 234.011 70C222.413 50.2533 212.686 23.2184 186 22.0394C182.375 21.8792 178.58 21.8203 175 22.4645z"/>
<path style="fill:#fefefe; stroke:none;" d="M179 47.6528C172.366 49.5777 169.265 55.4605 166.011 61C159.593 71.9254 153.341 82.9527 147.139 94C122.309 138.228 97.0932 182.506 71 226C63.8866 237.857 57.0491 249.941 50.284 262C47.0285 267.803 44.0147 274.629 47.858 280.996C52.3435 288.428 59.3795 288 67 288L109 288L251 288L292 288C297.861 288 305.476 289.256 310.996 286.991C317.429 284.351 321.059 276.639 319.279 270C317.855 264.688 313.993 259.688 311.201 255C306.678 247.406 302.404 239.663 298 232C270.394 183.965 242.606 136.035 215 88C208.497 76.6841 202.781 63.1118 194.471 53.044C190.85 48.6564 184.674 46.0063 179 47.6528z"/>
<path style="fill:#272527; stroke:none;" d="M177 108.653C167.38 111.67 165.33 121.181 166.17 130C168.356 152.953 170.414 176.143 173.424 199C174.273 205.447 172.815 227.511 184.956 223.218C189.082 221.759 189.695 217.791 190.074 214C190.74 207.337 191.468 200.646 192.285 194C194.124 179.024 195.56 163.999 197.166 149C198.171 139.614 200.105 129.449 198.867 120C197.527 109.775 185.867 105.872 177 108.653M178 234.65C158.82 240.35 167.645 270.243 187 264.196C205.976 258.267 196.513 229.147 178 234.65z"/>
</svg>
