<?xml version="1.0" standalone="yes"?>
<svg xmlns="http://www.w3.org/2000/svg" width="589" height="653">
<path style="fill:#fefefe; stroke:none;" d="M0 0L0 653L589 653L589 0L0 0z"/>
<path style="fill:#0c0c0c; stroke:none;" d="M50 386C37.4637 386 23.3183 385.713 11 388C11 423.322 16.4855 458.786 18.9105 494C21.7941 535.872 23.7372 578.357 29 620L265 620C264.533 614.081 264.373 607.768 263 602L536 603C536 560.647 534.051 518.302 533.015 476C531.275 404.982 530.725 334.018 528.985 263C528.505 243.404 527.054 223.6 527 204C537.309 204.085 552.263 208.57 560.291 199.671C565.001 194.45 565 187.593 565 181C565.001 172.379 565.561 163.555 564.424 155C560.754 127.382 557.882 99.6389 554.282 72C552.669 59.6193 552.769 45.9202 549 34L547 34C544.802 44.1446 548.968 56.7074 549.925 67C552.562 95.3606 556.938 123.723 560.286 152C561.585 162.98 563.295 174.958 561.7 186C560.941 191.253 558.933 196.925 553.96 199.543C546.772 203.327 534.71 200.974 527 200C527 163.63 525 127.368 525 91C525 81.9496 524.001 73.0504 524 64C524 61.197 524.918 56.0248 522.397 54.0278C519.779 51.9542 514.122 53 511 53L482 53C482 44.5705 479.881 32.2454 485.652 25.2137C488.984 21.1545 494.13 20.834 499 21.0394C509.37 21.4767 520.732 24.3475 526.095 34.0008C532.349 45.2585 533.429 59.4911 535.272 72C538.393 93.1919 541.315 114.649 543 136L546 136C545.999 123.31 543.835 110.582 542.285 98C540.355 82.3354 538.981 66.4413 535.576 51C533.335 40.8413 530.972 27.8849 520.999 22.4174C509.495 16.1104 485.11 12.2648 479.789 28C478.036 33.1836 478.011 38.603 478 44C477.994 46.6295 478.471 50.2273 476.397 52.2577C474.088 54.5181 469.939 53.9951 467 54L444 54C362.988 54 281.988 57 201 57C179.315 57 157.614 58 136 58C128.789 58 115.235 55.4171 109.09 59.6034C104.868 62.4799 101.897 67.9691 98.8735 72C92.6518 80.2956 86.5529 88.6775 80.3704 97C71.675 108.705 62.8755 120.335 54.1265 132C50.0808 137.394 43.6597 143.518 41.564 150C39.0511 157.773 41.3664 168.055 41.9105 176C43.0041 191.97 42.8167 208.027 43.9105 224C45.3673 245.273 45.1065 266.696 46.0394 288C47.4676 320.618 50 353.319 50 386z"/>
<path style="fill:#fefefe; stroke:none;" d="M113 62C116.297 76.3813 122.845 90.4105 125 105L483 104C482.87 88.2722 479 72.7748 479 57C357.021 57 234.951 60.9907 113 62M482 57C482.324 72.7147 485.765 88.3471 487 104L521 104C521 88.2826 521.235 72.6445 520 57L482 57M109 64C95.1907 83.2242 80.8285 102.064 66.6265 121C59.7142 130.216 52.0893 139.222 46 149C76.0137 149 105.957 153 136 153C131.227 132.18 124.304 111.422 118.025 91C115.44 82.5955 114.282 71.0889 109 64M127 109C127.855 114.812 129.918 120.377 131.576 126C132.247 128.277 132.67 131.44 134.703 132.972C136.638 134.43 139.736 133.995 142 134C147.76 134.012 153.28 133.714 159 133.17C177.018 131.455 195.898 133 214 133C305.049 133 395.996 132 487 132C485.953 123.716 484.358 115.344 484 107C365.066 107 245.958 109 127 109M488 107C488.006 115.409 489.931 123.611 490 132L522 132L522 107L488 107M135 137C135.951 141.594 141.051 151.245 138.799 155.582C137.735 157.629 134.969 158.387 132.999 159.2L118 165.424C101.035 172.543 84.0806 179.762 67 186.6C61.769 188.694 50.4438 191.093 47.0278 195.699C43.9315 199.874 46.9981 210.04 47 215C47.0072 233.691 49 252.298 49 271C54.8199 262.4 59.7448 255.516 71 255C73.2819 244.09 81.3345 235.051 93 234.093C97.5136 233.723 104.543 236.036 108.61 234.357C111.664 233.097 113.313 228.432 115.329 226.001C119.076 221.482 123.681 217.814 129 215.323C143.52 208.525 161.439 207.914 177 210.438C182.74 211.369 188.236 214.33 194 214.776C205.908 215.699 219.425 210.9 226.91 224.001C231.387 231.835 226.881 241.212 220.957 246.895C218.302 249.442 213.744 251.102 213.163 255.105C212.146 262.104 214 270.79 214 278C214 280.872 213.309 284.921 214.603 287.582C216.576 291.637 223.226 291.643 223.824 297C224.393 302.102 217.766 304.094 214 305C214 321.559 214.368 342.745 200.985 354.815C196.138 359.186 190.36 361.412 184 362.536C181.024 363.062 177.154 362.355 174.518 364.028C169.493 367.217 165.826 375.905 163 381C182.716 381 202.344 379.032 222 379C226.656 378.993 231.355 379.19 236 378.835C238.204 378.666 240.62 378.076 242.486 379.643C244.847 381.625 244.857 385.201 245 388C245.27 393.281 245.666 398.75 246.285 404C249.28 429.363 251.905 455.487 253 481C267.751 476.783 281.297 468.599 296 464.025C327.187 454.324 362.356 454.264 391 471.811C401.309 478.126 410.627 485.929 416.019 497C417.929 500.922 419.439 505.592 418.772 510C418.144 514.157 415.666 517.665 415.639 522C415.616 525.554 418.88 531.056 413.877 532.798C408.485 534.675 401.905 526.718 398 524C402.948 534.598 411.95 555.077 394.996 560.647C392.585 561.44 390.512 561.574 388 561.495C385.333 561.41 382.575 561.837 380 560.966C369.01 557.25 365.806 545.173 353 545.004C336.353 544.784 323.564 555.669 310 564C314.132 565.271 319.585 564 324 564L324 573L338 573C338.071 570.822 337.911 568.277 339.603 566.602C341.724 564.502 345.301 565.101 348 564.911C355.715 564.366 363.241 564 371 564L371 573L382 573C382.136 561.454 392.093 564 401 564L401 573L433 573C440.449 533.463 446.909 493.672 453.565 454C457.084 433.02 458.568 410.284 465 390C472.907 392.528 480.908 395.145 489 397C478.488 437.63 472.231 479.841 464 521L454 571C452.165 580.175 449.403 589.639 449 599C461.532 598.964 473.164 589.94 484 584.219C487.513 582.365 494.454 579.939 495.682 575.787C496.729 572.248 496 567.66 496 564C496 554.911 495.709 546.041 495.09 537C493.747 517.393 495.433 497.616 494.09 478C493.339 467.042 494.441 455.973 493.961 445C492.428 409.996 491.483 374.958 489.09 340C488.037 324.629 487.167 309.321 485.285 294C484.32 286.146 483.451 278.3 480.099 271C478.484 267.483 476.277 263.965 473.674 261.093C457.837 243.618 436.602 254.342 421 265L421 267C423.157 267.96 425.776 268.904 426.87 271.214C428.058 273.723 426.524 276.623 425.691 279C423.607 284.953 420.958 290.851 419.503 297C412.737 325.6 416.045 356.405 409 385C401.326 380.915 393.469 372.859 385 370.792C381.251 369.878 377.602 372.154 374 372.876C367.133 374.251 360.337 372.244 355.04 367.671C350.792 364.003 348.319 359.3 346.721 354C345.747 350.766 345.677 346.394 343.4 343.761C339.187 338.886 331.396 335.653 326.002 332.188C324.079 330.953 320.299 329.013 321.207 326.144C322.037 323.521 325.885 321.748 328 320.333C334.279 316.134 340.715 312.188 347 308C367.807 294.135 392.349 282.389 404 259C407.659 260.523 412.932 264.625 417 264.006C421.691 263.293 425.914 257.262 430 254.877C444.138 246.62 461.202 245.338 473.829 257.301C477.317 260.605 480.27 264.758 482.507 269C486.583 276.731 487.35 285.512 488.579 294C491.077 311.251 492.278 328.621 493.039 346C494.178 371.993 495.822 398.003 496.961 424C498.142 450.982 497.78 478.033 498.961 505C499.717 522.264 499 539.718 499 557C499 562.597 497.069 572.734 500.179 577.61C502.004 580.47 506.102 581.797 509 583.247C516.45 586.974 523.98 591.69 532 594C532 463.625 524 333.377 524 203C516.861 202.038 509.43 199.895 504.093 194.815C493.184 184.43 491.617 166.098 489.718 152C488.991 146.605 488.015 141.466 488 136L135 137M491 136C492.78 158.559 494.139 198.38 524 199C522.284 185.422 523.159 171.675 522.996 158C522.909 150.657 522 143.388 522 136L491 136z"/>
<path style="fill:#0c0c0c; stroke:none;" d="M348 299L348 296L307 296C303.583 268.962 303.952 241.194 302.09 214C301.31 202.612 302.647 190.116 300 179L393 179L393 229C393 234.375 390.824 243.95 397 246L397 195C397 190.487 398.895 180.294 395.972 176.603C394.594 174.864 391.981 175.042 389.999 175.005C385.003 174.91 379.997 175 375 175L318 175C313.619 175 301.001 172.849 298.028 176.603C296.699 178.281 297.014 181.008 297.001 183C296.962 188.727 297.928 194.301 297.996 200C298.276 223.525 299.602 247.586 301.83 271C302.431 277.317 302.214 283.665 302.83 290C303.067 292.438 302.42 296.243 304.603 297.972C307.385 300.175 313.672 299 317 299L348 299M312 212L313 232L333 232L333 212L312 212z"/>
<path style="fill:#fefefe; stroke:none;" d="M200 225C187.537 245.013 167.943 261.215 147 271.752C143.808 273.359 140.58 275.241 137 275.787C129.735 276.895 118.561 274.159 115.025 283.043C113.231 287.55 115.85 292.015 120.043 293.867C127.642 297.222 137.592 296.463 139.377 307C142.389 324.794 112.13 324.805 119.353 343C124.295 355.453 132.32 368.409 143.015 376.66C145.96 378.932 154.805 384.91 158.248 380.396C159.875 378.264 157.51 375.767 156.45 374C154.422 370.621 150.667 361.955 155.434 359.117C158.671 357.19 166.397 359.103 170 359.576C176.189 360.388 182.97 359.716 189 358.073C211.658 351.898 210.948 320.819 211 302C214.049 301.858 220.364 301.545 220.364 297.159C220.364 292.311 211.07 292.681 210.148 286.981C207.931 273.275 211.246 258.823 209.271 245C208.182 237.377 206.307 229.95 200 225z"/>
<path style="fill:#0c0c0c; stroke:none;" d="M346 261L365 261C364.816 256.713 364.835 245.899 361.258 243.028C359.41 241.544 356.198 241.99 354 242.001C351.793 242.011 348.581 241.642 347.028 243.603C344.21 247.161 346 256.637 346 261M194 257C198.077 256.641 201.557 256.145 203 252C199.169 252.502 195.176 252.977 194 257z"/>
<path style="fill:#fefefe; stroke:none;" d="M392 282C399.974 286.881 408.363 291.404 417 295C418.295 290.257 420.086 285.609 421.807 281C422.658 278.722 424.185 275.755 423.303 273.275C422.328 270.531 418.358 269.409 416 268.244C413.19 266.856 409.342 264.068 406.039 264.816C400.436 266.085 394.082 277.081 392 282z"/>
<path style="fill:#0c0c0c; stroke:none;" d="M196.299 270.086C192.963 272.051 194.551 279.677 198.726 277.744C202.511 275.992 200.81 267.431 196.299 270.086z"/>
<path style="fill:#fefefe; stroke:none;" d="M325 326L325 328C342.393 339.733 360.286 350.812 378 362.053C387.517 368.093 396.771 375.219 407 380C407.162 360.427 411.262 340.496 413.075 321C413.645 314.87 416.934 305.052 414.397 299.213C413.264 296.608 410.368 295.456 407.999 294.248C402.684 291.537 394.242 284.431 388 285.615C381.281 286.89 373.628 293.915 368 297.667C353.715 307.189 339.232 316.399 325 326M50 290C50 321.999 54 353.997 54 386C59.466 385.999 67.9384 386.718 72.8264 383.972C76.483 381.918 78.9094 377.227 81.4244 374C86.7553 367.161 92.3526 360.432 98.1698 354C105.419 345.985 114.45 339.987 117 329C95.2295 331.751 74.5352 321.106 60.1736 305C56.0694 300.397 53.4692 295.004 50 290z"/>
<path style="fill:#0c0c0c; stroke:none;" d="M183 309C184.69 315 188.976 317.709 195 316C191.703 313.235 187.135 310.174 183 309z"/>
<path style="fill:#fefefe; stroke:none;" d="M77 385C99.2018 385 121.877 383.746 144 382C132.67 369.866 120.775 358.577 116 342C110.793 344.428 107.01 348.946 103.004 353C93.5413 362.576 84.1262 373.557 77 385M349 348C350.271 362.552 365.529 377.31 380 367C370.354 360.492 359.947 352.008 349 348M161 386C168.064 401.113 174.202 414.025 175.83 431C176.499 437.968 177 444.996 177 452C177 458.551 176.46 465.084 179.785 471C184.703 479.748 193.03 489.345 203 492.211C212.215 494.859 223.171 492.607 232 489.667C236.365 488.213 246.351 486.333 248.393 481.725C249.684 478.81 248.301 475.019 248.09 472C247.575 464.659 247.151 457.31 246.285 450C243.656 427.789 241 404.359 241 382C233.681 383.359 226.404 382.833 219 383.015C207.355 383.3 195.638 384.451 184 384.961C176.263 385.299 168.661 384.578 161 386M63 597L171 597C163.924 591.705 154.439 589.486 147 584.279C139.668 579.146 134.334 571.036 126.83 566.414C113.797 558.385 100.717 553.679 93.2731 539C86.2237 525.099 87.6087 510.126 93.2037 496C94.6519 492.344 96.1292 488.348 98.3511 485.078C99.19 483.843 100.718 481.78 102.44 482.921C105.281 484.805 104.809 494.795 105.271 498C106.848 508.947 107.906 525.123 115 534C124.25 518.318 136.759 504.121 155 499.159C162.599 497.092 170.195 497 178 497C173.802 475.355 174.348 453.792 172.169 432C170.787 418.18 168.958 402.493 160.211 391.044C153.348 382.06 138.672 386.996 129 387C115.51 387.005 101.39 387.135 88 388.715C83.744 389.217 78.0209 387.873 74.1736 390.028C71.1814 391.704 69.217 395.25 67.3441 398C63.5563 403.561 58.2695 409.619 56.0093 416C54.4307 420.456 55.9982 426.306 56 431C56.0054 444.989 56.9558 459.059 57.9105 473C59.3673 494.273 59.1065 515.696 60.0394 537C60.9128 556.947 62.8347 577.034 63 597z"/>
<path style="fill:#0c0c0c; stroke:none;" d="M339 386C334.796 393.982 329.09 401.512 326 410L327 411L329 411C333.908 403.583 340.42 394.859 342 386L339 386z"/>
<path style="fill:#fefefe; stroke:none;" d="M54 390L55 410C60.6914 404.784 66.265 396.216 69 389L54 390M15 391C15 404.386 16.9924 417.668 17.9105 431C20.824 473.306 26.038 515.646 27.9606 558C28.636 572.877 29.4853 588.232 31.4244 603C31.8944 606.58 30.6869 614.5 33.7423 616.972C37.0677 619.663 45.9353 618 50 618L93 618L261 618L259 602C210.064 602 161.012 601 112 601C99.4157 601 86.5543 601.77 74 600.911C70.5152 600.672 63.1857 600.979 60.6034 598.397C57.4983 595.291 59.1835 587.986 58.9105 584C57.979 570.398 57.0009 556.647 57 543C56.9967 491.999 51 441.046 51 390L15 391z"/>
<path style="fill:#0c0c0c; stroke:none;" d="M368 393L368 428C371.829 425.518 370.999 421.206 371 417C371.001 408.963 372 401.053 372 393L368 393z"/>
<path style="fill:#fefefe; stroke:none;" d="M253 485C254.777 494.569 254.223 504.431 256 514C267.009 510.762 277.63 503.276 288 498.258C313.702 485.822 345.683 475.98 373 489.259C382.685 493.967 391.83 500.297 400 507.3C404.452 511.116 408.196 515.616 413 519C410.633 503.266 395.556 499.086 387 488C395.532 490.005 403.184 497.583 408.815 504C411.249 506.774 412.884 510.002 416 512C415.919 502.376 411.889 495.441 404 489.789C399.852 486.816 394.594 485.57 392 481C395.946 481.703 399.319 483.47 403 485C394.743 474.235 378.807 467.911 366 464.63C326.157 454.42 288.838 468.038 253 485M178 475C179.831 498.196 189.644 530.957 219 528.911C223.42 528.602 227.861 527.487 232 525.935C236.956 524.077 249.102 520.801 251.382 515.61C252.509 513.043 251.276 509.661 251.09 507C250.622 500.32 250 493.706 250 487C230.602 490.34 213.118 504.397 194 490.956C187.65 486.491 183.685 480.045 178 475M262 587C280.527 579.399 297.329 568.994 314 558.003C324.602 551.013 337.776 541.309 351 541.054C365.925 540.766 371.073 557.276 385 558C384.97 547.594 379.795 541.696 371 536.453C366.446 533.738 359.42 532.546 358 527C370.194 532.432 391.252 541.087 388 558L392 559C394.53 547.322 388.081 533.586 378 527.479C373.034 524.471 365.089 524.053 362 519C382.134 520.758 395.837 537.266 396 557C401.743 553.679 402.668 544.008 401.072 538C396.799 521.917 381.593 516.533 370 507C380.216 506.389 392.384 515.742 400 521.807C404.477 525.372 408.149 529.218 414 530C411.609 517.644 397.635 508.484 388 501.721C381.246 496.98 373.894 492.338 366 489.749C338.205 480.632 308.904 491.301 284 503.753C276.147 507.68 263.587 511.377 257.618 517.954C254.366 521.538 257.4 532.502 257.83 537C259.413 553.561 261.287 570.387 262 587M258 589C257.958 573.74 255.621 558.185 254.17 543C253.484 535.821 254.044 527.916 252 521C238.265 524.957 223.979 536.464 209 531.477C199.787 528.41 191.419 521.861 185.789 514C183.249 510.455 181.958 504.632 178.502 501.938C175.42 499.537 170.606 499.951 167 500.424C158.494 501.541 150.506 503.004 143 507.454C133.977 512.803 126.823 519.997 121.453 529C119.716 531.912 117.306 535.54 117.016 539C116.584 544.159 120.84 549.766 123.284 554C131.326 567.935 142.895 579.383 157 587.135C189.191 604.827 224.505 596.679 258 589M309 568L309 573L321 573L321 567C316.963 567.51 313.08 567.989 309 568M341 569L341 573L367 573L367 567L341 569M386 567L386 573L397 573L397 567L386 567M304 568L298 572C300.332 572.984 302.457 572.981 305 573C304.912 571.036 304.779 569.769 304 568M464 598C470.436 600.701 480.049 599 487 599C502.027 599 516.944 600 532 600C529.061 595.513 522.695 593.594 518 591.247C512.212 588.353 503.581 581.772 497 581.781C493.068 581.786 489.31 584.901 486 586.691C478.78 590.596 471.581 594.844 464 598M262 590L263 598L280 598L280 583C273.834 584.776 268.1 587.937 262 590M239 597C244.715 599.398 252.831 598 259 598L259 592C252.169 593.009 245.877 596.073 239 597z"/>
</svg>
